<svg width="133" height="38" viewBox="0 0 133 38" fill="none" xmlns="http://www.w3.org/2000/svg">
<path d="M44.5906 24.1818V9.40327H42.1854V24.1818H44.5906Z" fill="#9E96FD"/>
<path d="M46.0626 19.2556C46.0626 22.2749 48.0735 24.4202 51.1292 24.4202C54.1849 24.4202 56.1958 22.2749 56.1958 19.2556C56.1958 16.2364 54.1849 14.0911 51.1292 14.0911C48.0735 14.0911 46.0626 16.2364 46.0626 19.2556ZM48.4875 19.2556C48.4875 17.4878 49.5323 16.2562 51.1292 16.2562C52.7261 16.2562 53.7709 17.4878 53.7709 19.2556C53.7709 21.0036 52.7261 22.255 51.1292 22.255C49.5323 22.255 48.4875 21.0036 48.4875 19.2556Z" fill="#9E96FD"/>
<path d="M57.0047 19.057C57.0047 21.9174 58.8382 23.9832 61.5785 23.9832C62.9979 23.9832 64.2202 23.4071 64.8313 22.4537V24.1222C64.8313 25.7312 63.8259 26.8038 62.1502 26.8038C60.6519 26.8038 59.6267 26.0689 59.4887 24.7777H57.0639C57.3793 27.3401 59.331 29.0087 62.0122 29.0087C65.1665 29.0087 67.1773 26.923 67.1773 23.6852V14.3692H65.0482L64.9102 15.7C64.3188 14.6671 63.0965 14.0514 61.6573 14.0514C58.8776 14.0514 57.0047 16.1768 57.0047 19.057ZM59.4493 18.9974C59.4493 17.3686 60.4745 16.1768 61.9925 16.1768C63.6485 16.1768 64.7525 17.3885 64.7525 18.9974C64.7525 20.6262 63.6485 21.8776 61.9925 21.8776C60.4942 21.8776 59.4493 20.6461 59.4493 18.9974Z" fill="#9E96FD"/>
<path d="M68.3676 19.2556C68.3676 22.2749 70.3784 24.4202 73.4341 24.4202C76.4898 24.4202 78.5007 22.2749 78.5007 19.2556C78.5007 16.2364 76.4898 14.0911 73.4341 14.0911C70.3784 14.0911 68.3676 16.2364 68.3676 19.2556ZM70.7924 19.2556C70.7924 17.4878 71.8373 16.2562 73.4341 16.2562C75.031 16.2562 76.0758 17.4878 76.0758 19.2556C76.0758 21.0036 75.031 22.255 73.4341 22.255C71.8373 22.255 70.7924 21.0036 70.7924 19.2556Z" fill="#9E96FD"/>
<path d="M81.1036 12.363C81.8922 12.363 82.5427 11.7273 82.5427 10.9129C82.5427 10.1184 81.8922 9.48272 81.1036 9.48272C80.2953 9.48272 79.6841 10.1184 79.6841 10.9129C79.6841 11.7273 80.2953 12.363 81.1036 12.363ZM79.901 24.1818H82.3062V14.3692H79.901V24.1818Z" fill="#9E96FD"/>
<path d="M84.4133 28.7306H86.7594V22.8311C87.3706 23.8441 88.6914 24.44 90.1503 24.44C93.0286 24.44 94.7437 22.2153 94.7043 19.1563C94.6452 16.0775 92.8906 14.0712 90.1306 14.0712C88.652 14.0712 87.3114 14.7267 86.72 15.859L86.582 14.3692H84.4133V28.7306ZM86.858 19.2755C86.858 17.5076 87.9226 16.2761 89.5983 16.2761C91.274 16.2761 92.2794 17.5275 92.2794 19.2755C92.2794 21.0235 91.274 22.255 89.5983 22.255C87.9226 22.255 86.858 21.0434 86.858 19.2755Z" fill="#9E96FD"/>
<path d="M95.3146 21.242C95.3934 23.1886 96.8917 24.44 99.218 24.44C101.505 24.44 103.062 23.2085 103.062 21.3016C103.062 19.8913 102.195 18.9378 100.598 18.5406L98.8829 18.1234C98.1534 17.9248 97.6606 17.6665 97.6606 17.0309C97.6606 16.3555 98.1929 15.8788 99.0603 15.8788C99.9671 15.8788 100.559 16.3953 100.559 17.2494H102.747C102.668 15.3028 101.229 14.0712 99.1194 14.0712C97.0297 14.0712 95.4723 15.3028 95.4723 17.17C95.4723 18.4412 96.2017 19.494 98.0746 19.9906L99.77 20.4276C100.401 20.6064 100.795 20.9043 100.795 21.4605C100.795 22.2352 100.066 22.5927 99.1786 22.5927C98.114 22.5927 97.5029 22.0961 97.5029 21.242H95.3146Z" fill="#9E96FD"/>
<path d="M108.052 24.44C109.373 24.44 110.634 23.8243 111.206 22.9105L111.364 24.1818H113.611V14.3692H111.206V19.5139C111.206 21.2817 110.536 22.2749 108.959 22.2749C107.736 22.2749 106.889 21.679 106.889 19.6529V14.3692H104.483V20.507C104.483 22.851 105.745 24.44 108.052 24.44Z" fill="#9E96FD"/>
<path d="M118.139 24.1818V18.5406C118.139 16.9515 119.065 16.1966 120.209 16.1966C121.352 16.1966 122.101 16.9316 122.101 18.3221V24.1818H124.447V18.5604C124.447 16.9515 125.354 16.1966 126.497 16.1966C127.661 16.1966 128.41 16.9316 128.41 18.3221V24.1818H130.736V17.7659C130.736 15.5014 129.494 14.0712 127.128 14.0712C125.65 14.0712 124.487 14.7863 124.013 15.9384C123.481 14.7863 122.417 14.0712 120.8 14.0712C119.657 14.0712 118.631 14.6076 118.06 15.4816L117.941 14.3692H115.733V24.1818H118.139Z" fill="#9E96FD"/>
<path d="M112.373 32.9512C112.731 32.9512 113.042 32.6472 113.042 32.2862C113.042 31.9157 112.731 31.6117 112.373 31.6117C112.005 31.6117 111.694 31.9157 111.694 32.2862C111.694 32.6472 112.005 32.9512 112.373 32.9512Z" fill="#9E96FD"/>
<path d="M113.734 30.5002C113.734 31.9537 114.62 32.9322 115.912 32.9322C117.024 32.9322 117.873 32.2577 118.052 31.2507H117.203C117.043 31.8112 116.553 32.1437 115.968 32.1437C115.139 32.1437 114.611 31.4977 114.611 30.4907C114.611 29.4647 115.167 28.8377 115.987 28.8377C116.553 28.8377 117.043 29.1417 117.194 29.7402H118.043C117.892 28.7237 117.1 28.0397 115.997 28.0397C114.658 28.0397 113.734 29.0372 113.734 30.5002Z" fill="#9E96FD"/>
<path d="M118.386 30.4907C118.386 31.8872 119.329 32.9322 120.743 32.9322C122.158 32.9322 123.101 31.8872 123.101 30.4907C123.101 29.0942 122.158 28.0492 120.743 28.0492C119.329 28.0492 118.386 29.0942 118.386 30.4907ZM119.282 30.4907C119.282 29.5407 119.857 28.8472 120.743 28.8472C121.63 28.8472 122.205 29.5407 122.205 30.4907C122.205 31.4407 121.63 32.1342 120.743 32.1342C119.857 32.1342 119.282 31.4407 119.282 30.4907Z" fill="#9E96FD"/>
<path d="M124.744 32.8277V30.0347C124.744 29.3032 125.196 28.8282 125.856 28.8282C126.488 28.8282 126.884 29.2367 126.884 29.9682V32.8277H127.751V30.0442C127.751 29.3032 128.195 28.8282 128.864 28.8282C129.486 28.8282 129.882 29.2367 129.882 29.9682V32.8277H130.74V29.7782C130.74 28.7047 130.118 28.0492 129.062 28.0492C128.345 28.0492 127.789 28.4007 127.563 28.9707C127.327 28.4007 126.809 28.0492 126.054 28.0492C125.479 28.0492 124.97 28.3152 124.715 28.7712L124.649 28.1822H123.857V32.8277H124.744Z" fill="#9E96FD"/>
<path fill-rule="evenodd" clip-rule="evenodd" d="M2.21429 19.3759L2.21594 19.2029L2.21935 19.0297L2.22453 18.8566L2.23146 18.6834L2.24017 18.5102L2.25064 18.3371L2.26288 18.164L2.27688 17.9909L2.29265 17.8179L2.31018 17.645L2.32949 17.4722L2.35055 17.2995L2.37338 17.1269L2.39798 16.9546L2.42434 16.7824L2.45246 16.6104L2.48235 16.4385L2.51399 16.267L2.54739 16.0957L2.58255 15.9246L2.61947 15.7538L2.65812 15.5833L2.69855 15.4131L2.7407 15.2433L2.78461 15.0738L2.83026 14.9046L2.87765 14.7359L2.92677 14.5676L2.97762 14.3997L3.0302 14.2322L3.08451 14.0652L3.14054 13.8986L3.19829 13.7325L3.25774 13.567L3.3189 13.4019L3.38177 13.2374L3.44634 13.0735L3.51259 12.9101L3.58054 12.7474L3.65016 12.5852L3.72147 12.4236L3.79445 12.2627L3.86909 12.1025L3.94539 11.9429L4.02335 11.784L4.10295 11.6258L4.18419 11.4684L4.26707 11.3117L4.35156 11.1558L4.43768 11.0006L4.52542 10.8462L4.61475 10.6926L4.70568 10.5398L4.7982 10.3879L4.89231 10.2369L4.98798 10.0867L5.08523 9.93744L5.18403 9.78898L5.28438 9.64155L5.38626 9.49499L5.48968 9.34938L5.59461 9.20481L5.70106 9.0611L5.80901 8.91852L5.91846 8.77688L6.02938 8.63623L6.14178 8.49666L6.25564 8.35815L6.37095 8.22072L6.48771 8.08436L6.6059 7.9491L6.72551 7.81497L6.84653 7.68196L6.96895 7.5501L7.09276 7.4194L7.21794 7.28987L7.34449 7.16153L7.4724 7.03438L7.60164 6.90845L7.73222 6.78375L7.86412 6.66031L7.99732 6.5381L8.13181 6.41717L8.26759 6.29753L8.40464 6.17917L8.54294 6.06213L8.68248 5.94641L8.82326 5.83202L8.96526 5.71898L9.10846 5.60729L9.2528 5.49699L9.39843 5.38806L9.54517 5.28053L9.69303 5.17442L9.842 5.06972L9.99217 4.96646L10.1434 4.86462L10.2957 4.76426L10.4491 4.66536L10.6037 4.56794L10.7591 4.47201L10.9157 4.37757L11.0733 4.28465L11.2319 4.19325L11.3915 4.10338L11.552 4.01506L11.7135 3.92828L11.8759 3.84307L12.0393 3.75943L12.2036 3.67738L12.3688 3.59691L12.5349 3.51804L12.7018 3.44079L12.8696 3.36516L13.0382 3.29116L13.2077 3.21879L13.3779 3.14808L13.5489 3.07901L13.7207 3.01161L13.8932 2.94588L14.0664 2.88183L14.2404 2.81947L14.4151 2.7588L14.5905 2.69983L14.7665 2.64258L14.9431 2.58704L15.1205 2.53323L15.2984 2.48115L15.4769 2.43081L15.656 2.38221L15.8357 2.33535L16.0158 2.29026L16.1965 2.24694L16.3778 2.20538L16.5595 2.1656L16.7417 2.12759L16.9243 2.09137L17.1074 2.05694L17.2909 2.02431L17.4749 1.99347L17.6591 1.96445L17.8438 1.93723L18.0287 1.91183L18.2141 1.88824L18.3997 1.86648L18.5856 1.84653L18.7718 1.82842L18.9582 1.81215L19.1449 1.7977L19.3318 1.7851L20.3367 1.72728L20.394 6.60567L20.4269 6.60529L20.5656 6.60509L20.7044 6.60627L20.8432 6.60882L20.9821 6.61275L21.121 6.61805L21.2599 6.62472L21.3989 6.63277L21.5378 6.64221L21.6767 6.65302L21.8156 6.66521L21.9544 6.67879L22.0931 6.69375L22.2317 6.71008L22.3703 6.72779L22.5088 6.74689L22.6471 6.76735L22.7853 6.78921L22.9234 6.81244L23.0612 6.83705L23.1989 6.86304L23.3364 6.8904L23.4737 6.91914L23.6108 6.94924L23.7476 6.98072L23.8841 7.01357L24.0205 7.04779L24.1565 7.08338L24.2922 7.12032L24.4277 7.15863L24.5628 7.1983L24.6976 7.23932L24.832 7.2817L24.966 7.32544L25.0997 7.37052L25.233 7.41694L25.3659 7.46471L25.4984 7.5138L25.6304 7.56425L25.762 7.61601L25.8931 7.66912L26.0237 7.72355L26.1539 7.77929L26.2835 7.83635L26.4127 7.89472L26.5413 7.9544L26.6693 8.01537L26.7969 8.07765L26.9238 8.14122L27.0502 8.20608L27.1759 8.27221L27.3011 8.33963L27.4256 8.40832L27.5495 8.47828L27.6727 8.54949L27.7953 8.62196L27.9172 8.6957L28.0384 8.77066L28.1589 8.84683L28.2786 8.9243L28.3977 9.00289L28.516 9.08278L28.6336 9.16388L28.7503 9.24609L28.8664 9.32961L28.9816 9.41424L29.0959 9.50009L29.2096 9.58714L29.3223 9.67532L29.4342 9.76471L29.5452 9.85513L29.6555 9.94676L29.7647 10.0396L29.8732 10.1335L29.9807 10.2285L30.0874 10.3246L30.193 10.4218L30.2977 10.5202L30.4015 10.6196L30.5044 10.7201L30.6062 10.8216L30.7071 10.9242L30.8069 11.0279L30.9059 11.1326L31.0037 11.2383L31.1005 11.3451L31.1963 11.4529L31.291 11.5616L31.3847 11.6714L31.4772 11.7821L31.5688 11.8937L31.6592 12.0064L31.7485 12.12L31.8367 12.2345L31.9238 12.35L32.0098 12.4664L32.0945 12.5837L32.1782 12.7019L32.2607 12.821L32.342 12.9409L32.4221 13.0617L32.5011 13.1834L32.5788 13.306L32.6553 13.4293L32.7306 13.5534L32.8047 13.6784L32.8775 13.8041L32.9491 13.9306L33.0195 14.0579L33.0886 14.186L33.1564 14.3148L33.2229 14.4443L33.2881 14.5746L33.3521 14.7055L33.4147 14.8372L33.4761 14.9695L33.5361 15.1025L33.5948 15.2362L33.6521 15.3705L33.7081 15.5055L33.7628 15.641L33.8161 15.7772L33.8681 15.9139L33.9186 16.0513L33.9678 16.1891L34.0157 16.3277L34.0621 16.4666L34.1072 16.6062L34.1508 16.7462L34.1931 16.8867L34.2339 17.0277L34.2733 17.1692L34.3113 17.3112L34.3479 17.4536L34.3829 17.5963L34.4167 17.7396L34.4489 17.8832L34.4797 18.0273L34.5091 18.1716L34.537 18.3164L34.5634 18.4615L34.5884 18.607L34.6119 18.7527L34.6339 18.8987L34.6545 19.0451L34.6735 19.1916L34.6911 19.3385L34.7072 19.4856L34.7218 19.633L34.7349 19.7805L34.7465 19.9282L34.7567 20.0762L34.7652 20.2243L34.7723 20.3725L34.778 20.521L34.782 20.6694L34.7847 20.818L34.7857 20.9668L34.7853 21.1156L34.7833 21.2645L34.7798 21.4134L34.7748 21.5623L34.7683 21.7113L34.7603 21.8603L34.7507 22.0093L34.7397 22.1582L34.7271 22.3071L34.7129 22.456L34.6973 22.6048L34.6801 22.7535L34.6614 22.9021L34.6413 23.0505L34.6195 23.1989L34.5963 23.3471L34.5715 23.4951L34.5452 23.643L34.5174 23.7907L34.4881 23.9382L34.4573 24.0854L34.4249 24.2324L34.391 24.3792L34.3557 24.5257L34.3187 24.6719L34.2803 24.8178L34.2405 24.9634L34.1991 25.1087L34.1562 25.2536L34.1118 25.3983L34.0659 25.5424L34.0186 25.6863L33.9697 25.8296L33.9193 25.9727L33.8675 26.1152L33.8142 26.2573L33.7595 26.3989L33.7032 26.5402L33.6455 26.6808L33.5864 26.821L33.5258 26.9607L33.4637 27.0998L33.4002 27.2384L33.3353 27.3764L33.2689 27.5138L33.201 27.6507L33.1319 27.7869L33.0611 27.9226L32.9891 28.0575L32.9156 28.1919L32.8408 28.3255L32.7645 28.4585L32.6868 28.5908L32.6078 28.7223L32.5274 28.8532L32.4455 28.9833L32.3624 29.1127L32.278 29.2413L32.1921 29.3691L32.1049 29.4961L32.0164 29.6224L31.9265 29.7478L31.8353 29.8724L31.7429 29.9962L31.6491 30.1191L31.554 30.241L31.4577 30.3622L31.3601 30.4824L31.2611 30.6017L31.1609 30.7201L31.0595 30.8375L30.9569 30.954L30.853 31.0696L30.7479 31.1842L30.6416 31.2978L30.534 31.4104L30.4253 31.5219L30.3154 31.6324L30.2043 31.7419L30.0921 31.8504L29.9787 31.9578L29.8642 32.0641L29.7485 32.1694L29.6316 32.2735L29.5138 32.3765L29.3947 32.4785L29.2746 32.5793L29.1534 32.6789L29.0312 32.7774L28.9079 32.8748L28.7835 32.9709L28.6581 33.0658L28.5317 33.1596L28.4043 33.2522L28.2758 33.3434L28.1464 33.4336L28.016 33.5225L27.8847 33.6101L27.7523 33.6964L27.6191 33.7816L27.485 33.8653L27.3499 33.9479L27.2139 34.0291L27.077 34.1091L26.9393 34.1877L26.8007 34.2649L26.6613 34.3409L26.521 34.4154L26.3799 34.4886L26.2379 34.5606L26.0952 34.631L25.9517 34.7001L25.8075 34.7679L25.6625 34.8343L25.5167 34.8992L25.3703 34.9627L25.2231 35.0248L25.0752 35.0855L24.9267 35.1447L24.7775 35.2025L24.6275 35.2589L24.477 35.3137L24.3258 35.3672L24.1741 35.4191L24.0218 35.4696L23.8688 35.5186L23.7153 35.5661L23.5613 35.6121L23.4067 35.6566L23.2516 35.6996L23.096 35.7412L22.9398 35.7811L22.7833 35.8195L22.6263 35.8565L22.4687 35.8918L22.3109 35.9256L22.1525 35.9579L21.9938 35.9887L21.8347 36.0179L21.6753 36.0454L21.5154 36.0715L21.3553 36.096L21.1948 36.1189L21.0341 36.1402L20.873 36.16L20.7116 36.1782L20.55 36.1947L20.3882 36.2098L20.2262 36.2232L20.0639 36.235L19.9015 36.2452L19.7388 36.2538L19.5761 36.2608L19.4132 36.2662L19.2501 36.27L19.087 36.2721L18.9237 36.2727L18.7604 36.2717L18.597 36.269L18.4336 36.2648L18.2701 36.2588L18.1067 36.2513L17.9432 36.2422L17.7798 36.2314L17.6164 36.2191L17.4531 36.2051L17.2898 36.1895L17.1266 36.1723L16.9636 36.1535L16.8006 36.133L16.6378 36.1109L16.4752 36.0871L16.3127 36.0618L16.1504 36.0349L15.9883 36.0064L15.8264 35.9762L15.6648 35.9444L15.5034 35.911L15.3424 35.876L15.1815 35.8394L15.021 35.8012L14.8608 35.7614L14.701 35.7199L14.5415 35.6769L14.3824 35.6323L14.2236 35.5861L14.0652 35.5384L13.9073 35.489L13.7499 35.438L13.5929 35.3855L13.4363 35.3314L13.2802 35.2757L13.1246 35.2185L12.9695 35.1597L12.815 35.0993L12.6611 35.0374L12.5076 34.9739L12.3548 34.9089L12.2026 34.8424L12.0509 34.7743L11.8999 34.7047L11.7496 34.6335L11.5999 34.5609L11.4509 34.4867L11.3026 34.4111L11.155 34.334L11.0081 34.2553L10.8619 34.1752L10.7165 34.0936L10.5719 34.0105L10.4281 33.926L10.2851 33.84L10.1429 33.7526L10.0014 33.6636L9.86086 33.5733L9.72123 33.4815L9.58237 33.3884L9.44446 33.2938L9.30749 33.1978L9.17137 33.1005L9.03621 33.0017L8.902 32.9016L8.76875 32.8L8.63648 32.6972L8.5052 32.593L8.37492 32.4874L8.24568 32.3806L8.11745 32.2724L7.99028 32.1629L7.86417 32.0521L7.73914 31.9399L7.61519 31.8265L7.49236 31.7119L7.37063 31.5959L7.25004 31.4788L7.13058 31.3603L7.01228 31.2407L6.89515 31.1198L6.77921 30.9977L6.66445 30.8745L6.55091 30.75L6.43859 30.6244L6.32749 30.4976L6.21764 30.3697L6.10905 30.2406L6.00173 30.1104L5.89569 29.9791L5.79094 29.8467L5.6875 29.7132L5.58537 29.5786L5.48457 29.4429L5.38511 29.3062L5.287 29.1685L5.19024 29.0297L5.09487 28.8899L5.00088 28.7492L4.90828 28.6073L4.81709 28.4647L4.7273 28.321L4.63895 28.1763L4.55203 28.0308L4.46656 27.8842L4.38255 27.7369L4.3 27.5886L4.21892 27.4395L4.13934 27.2894L4.06123 27.1385L3.98465 26.9868L3.90956 26.8343L3.83601 26.681L3.76398 26.5269L3.69349 26.372L3.62455 26.2163L3.55716 26.06L3.49134 25.9028L3.4271 25.745L3.36443 25.5864L3.30335 25.4272L3.24387 25.2673L3.18599 25.1068L3.12972 24.9456L3.07506 24.7839L3.02202 24.6214L2.97063 24.4584L2.92086 24.2949L2.87275 24.1308L2.82629 23.9661L2.78148 23.8009L2.73833 23.6352L2.69685 23.4691L2.65704 23.3024L2.61893 23.1353L2.58249 22.9676L2.54774 22.7997L2.51469 22.6312L2.48334 22.4625L2.45369 22.2933L2.42575 22.1238L2.39952 21.9539L2.37502 21.7837L2.35224 21.6131L2.33118 21.4423L2.31186 21.2712L2.29426 21.0998L2.2784 20.9283L2.26428 20.7565L2.25191 20.5844L2.24128 20.4122L2.2324 20.2398L2.22527 20.0673L2.21988 19.8946L2.21626 19.7218L2.2144 19.5489L2.21429 19.3759ZM18.8241 6.70786L18.785 3.38269L18.7479 3.3863L18.5775 3.40457L18.4075 3.4245L18.2376 3.44613L18.0684 3.46936L17.8994 3.49428L17.7305 3.52088L17.5622 3.5491L17.394 3.57901L17.2267 3.61047L17.0591 3.64369L16.8928 3.67841L16.7261 3.71488L16.5604 3.7529L16.3948 3.79261L16.2299 3.83384L16.0655 3.87673L15.9016 3.92121L15.7381 3.96731L15.5754 4.01494L15.413 4.06422L15.2514 4.11503L15.0903 4.16745L14.93 4.22133L14.77 4.2769L14.6108 4.33396L14.4524 4.39254L14.2944 4.4527L14.1373 4.51434L13.9811 4.57747L13.8252 4.64221L13.6702 4.70843L13.5159 4.77615L13.3625 4.84531L13.2098 4.91596L13.058 4.98804L12.9067 5.06171L12.7565 5.13672L12.6071 5.2132L12.4586 5.29111L12.3109 5.37047L12.1643 5.45119L12.0182 5.5334L11.8731 5.61703L11.7293 5.70186L11.5859 5.78834L11.4438 5.87598L11.3027 5.96497L11.1623 6.05543L11.0231 6.14721L10.8848 6.24033L10.7478 6.33454L10.6114 6.43042L10.4763 6.52733L10.3422 6.62558L10.2091 6.72517L10.0772 6.82595L9.94649 6.92794L9.81654 7.03136L9.68806 7.13576L9.56051 7.24154L9.43417 7.34847L9.30894 7.45664L9.185 7.56585L9.06198 7.67643L8.94037 7.78801L8.8198 7.90087L8.70062 8.01468L8.58253 8.12972L8.46575 8.2458L8.35017 8.36303L8.23571 8.48147L8.12274 8.60072L8.01105 8.721L7.90035 8.84269L7.79118 8.96515L7.68335 9.08848L7.57663 9.2131L7.47146 9.3385L7.36745 9.46503L7.26485 9.59241L7.16358 9.72083L7.06364 9.85012L6.96517 9.98027L6.86799 10.1114L6.77214 10.2435L6.67784 10.3762L6.5848 10.5101L6.49324 10.6447L6.40309 10.7801L6.3143 10.9164L6.22701 11.0534L6.14115 11.1912L6.05673 11.3298L5.97382 11.4691L5.89227 11.6093L5.81219 11.7502L5.73368 11.8917L5.65658 12.0339L5.58096 12.1769L5.50686 12.3206L5.43423 12.4649L5.36316 12.6097L5.29356 12.7552L5.22551 12.9013L5.15893 13.0482L5.09394 13.1954L5.03041 13.3434L4.96844 13.4918L4.90806 13.6407L4.84918 13.7902L4.79184 13.9402L4.73609 14.0907L4.68187 14.2416L4.62926 14.3929L4.57817 14.5448L4.52866 14.6971L4.48074 14.8498L4.4344 15.0027L4.3896 15.1563L4.34643 15.31L4.30483 15.4642L4.26481 15.6186L4.22639 15.7735L4.18956 15.9285L4.15434 16.0838L4.1207 16.2395L4.08867 16.3954L4.05824 16.5514L4.02941 16.7077L4.00218 16.8642L3.97656 17.021L3.95256 17.1778L3.93015 17.3348L3.90936 17.492L3.89016 17.6493L3.87258 17.8066L3.85662 17.9642L3.84226 18.1217L3.8295 18.2792L3.81836 18.4369L3.80883 18.5946L3.8009 18.7522L3.79458 18.9099L3.78987 19.0675L3.78677 19.2252L3.78526 19.3827L3.78536 19.5402L3.78706 19.6976L3.79036 19.8549L3.79525 20.0121L3.80174 20.1691L3.80983 20.326L3.8195 20.4827L3.83076 20.6393L3.84361 20.7956L3.85805 20.9517L3.87405 21.1077L3.89164 21.2633L3.9108 21.4188L3.93152 21.5739L3.95382 21.7287L3.97768 21.8833L4.00308 22.0375L4.03006 22.1914L4.05858 22.345L4.08864 22.4981L4.12024 22.6509L4.15338 22.8033L4.18805 22.9553L4.22424 23.1069L4.26196 23.258L4.3012 23.4087L4.34193 23.5588L4.38419 23.7085L4.42794 23.8578L4.47318 24.0065L4.51991 24.1547L4.5681 24.3023L4.61778 24.4494L4.66894 24.5958L4.72155 24.7418L4.7756 24.8871L4.83114 25.0318L4.88808 25.1759L4.94646 25.3193L5.00628 25.4621L5.0675 25.6041L5.13015 25.7456L5.1942 25.8864L5.25964 26.0264L5.32646 26.1657L5.39467 26.3042L5.46425 26.442L5.53519 26.5791L5.60748 26.7154L5.68113 26.8509L5.7561 26.9855L5.83241 27.1194L5.91003 27.2525L5.98897 27.3846L6.06918 27.516L6.15072 27.6465L6.23351 27.776L6.3176 27.9048L6.40295 28.0326L6.48953 28.1595L6.57735 28.2855L6.66643 28.4105L6.75671 28.5346L6.84822 28.6578L6.9409 28.7799L7.03482 28.9011L7.12986 29.0212L7.22609 29.1404L7.32352 29.2586L7.42203 29.3757L7.52172 29.4918L7.62251 29.6068L7.72445 29.7208L7.82746 29.8337L7.93154 29.9456L8.03673 30.0563L8.14297 30.166L8.2503 30.2745L8.35865 30.3819L8.46805 30.4882L8.57843 30.5933L8.68984 30.6974L8.80227 30.8002L8.91566 30.9019L9.02996 31.0023L9.14531 31.1016L9.26163 31.1997L9.37871 31.2966L9.49691 31.3924L9.61589 31.4868L9.7358 31.5801L9.85657 31.6721L9.97829 31.7629L10.1008 31.8524L10.2241 31.9406L10.3482 32.0276L10.4733 32.1134L10.599 32.1977L10.7257 32.2809L10.853 32.3628L10.9811 32.4433L11.1101 32.5226L11.2396 32.6005L11.3699 32.6771L11.5009 32.7523L11.6327 32.8262L11.765 32.8988L11.8981 32.97L12.0317 33.0399L12.1661 33.1085L12.3011 33.1756L12.4367 33.2414L12.5728 33.3058L12.7095 33.3688L12.8467 33.4304L12.9846 33.4907L13.123 33.5495L13.2619 33.607L13.4013 33.6631L13.5412 33.7177L13.6816 33.7709L13.8223 33.8228L13.9636 33.8731L14.1053 33.9221L14.2475 33.9697L14.39 34.0158L14.5328 34.0604L14.6762 34.1037L14.8198 34.1455L14.9638 34.1858L15.1081 34.2248L15.2527 34.2623L15.3977 34.2983L15.5428 34.3328L15.6883 34.366L15.834 34.3976L15.9799 34.4278L16.1261 34.4566L16.2725 34.4839L16.4191 34.5097L16.5659 34.5341L16.7128 34.5569L16.8599 34.5784L17.0071 34.5983L17.1544 34.6169L17.3018 34.6339L17.4493 34.6494L17.5969 34.6636L17.7446 34.6762L17.8923 34.6874L18.04 34.6971L18.1877 34.7054L18.3354 34.7121L18.4831 34.7175L18.6308 34.7214L18.7785 34.7237L18.926 34.7247L19.0735 34.7241L19.2209 34.7222L19.3682 34.7188L19.5154 34.7139L19.6625 34.7076L19.8094 34.6998L19.956 34.6905L20.1026 34.6799L20.249 34.6678L20.3951 34.6543L20.541 34.6392L20.6867 34.6228L20.8321 34.605L20.9773 34.5858L21.1222 34.5651L21.2668 34.543L21.411 34.5195L21.555 34.4945L21.6987 34.4682L21.8419 34.4404L21.9848 34.4113L22.1273 34.3808L22.2695 34.3489L22.4111 34.3156L22.5525 34.2808L22.6933 34.2448L22.8337 34.2073L22.9736 34.1686L23.1131 34.1284L23.2521 34.0869L23.3906 34.044L23.5285 33.9999L23.666 33.9543L23.8029 33.9075L23.9391 33.8593L24.0749 33.8097L24.2101 33.7589L24.3447 33.7068L24.4787 33.6534L24.6119 33.5987L24.7446 33.5427L24.8767 33.4854L25.0081 33.4269L25.1387 33.3671L25.2689 33.3061L25.3982 33.2437L25.5268 33.1802L25.6547 33.1154L25.7819 33.0494L25.9083 32.9822L26.034 32.9137L26.1588 32.8441L26.2829 32.7733L26.4062 32.7013L26.5289 32.6281L26.6504 32.5538L26.7714 32.4783L26.8913 32.4017L27.0105 32.3238L27.1289 32.2449L27.2464 32.1648L27.3628 32.0837L27.4784 32.0014L27.5932 31.9181L27.707 31.8337L27.82 31.7481L27.9318 31.6617L28.043 31.5739L28.153 31.4853L28.262 31.3957L28.3703 31.3049L28.4774 31.2131L28.5834 31.1204L28.6886 31.0267L28.7927 30.932L28.8958 30.8363L28.9979 30.7397L29.0987 30.6422L29.1988 30.5435L29.2977 30.444L29.3955 30.3437L29.4923 30.2424L29.5878 30.1403L29.6823 30.0374L29.7759 29.9332L29.8681 29.8285L29.9594 29.7228L30.0494 29.6164L30.1384 29.5091L30.2261 29.401L30.3127 29.2921L30.3983 29.1824L30.4825 29.072L30.5657 28.9607L30.6476 28.8487L30.7284 28.7359L30.8081 28.6224L30.8863 28.5084L30.9635 28.3934L31.0394 28.278L31.1141 28.1616L31.1878 28.0446L31.2599 27.9272L31.3309 27.809L31.4008 27.6899L31.4692 27.5706L31.5365 27.4505L31.6025 27.3298L31.6672 27.2087L31.7307 27.0867L31.7929 26.9643L31.8537 26.8417L31.9133 26.7181L31.9717 26.5941L32.0287 26.4698L32.0844 26.3449L32.1389 26.2195L32.1919 26.0937L32.2438 25.9673L32.2943 25.8405L32.3434 25.7137L32.3912 25.5858L32.4377 25.458L32.4829 25.3296L32.5268 25.2009L32.5693 25.0718L32.6104 24.9427L32.6503 24.8126L32.6887 24.6827L32.7258 24.5524L32.7617 24.4219L32.7961 24.2909L32.8291 24.1599L32.8609 24.0284L32.8913 23.8967L32.9203 23.7649L32.948 23.6328L32.9742 23.5008L32.9992 23.3681L33.0227 23.2358L33.0449 23.103L33.0658 22.9701L33.0852 22.8371L33.1034 22.704L33.1201 22.571L33.1355 22.4374L33.1495 22.3043L33.1622 22.1708L33.1734 22.0375L33.1834 21.9038L33.1919 21.7706L33.1991 21.637L33.205 21.5033L33.2094 21.37L33.2126 21.2369L33.2143 21.1033L33.2147 20.97L33.2138 20.8368L33.2115 20.7037L33.2078 20.5706L33.2027 20.438L33.1964 20.305L33.1887 20.1725L33.1796 20.04L33.1692 19.9079L33.1575 19.7756L33.1445 19.6439L33.1301 19.5121L33.1143 19.3808L33.0972 19.2495L33.0789 19.1187L33.0591 18.9877L33.0381 18.8574L33.0158 18.7275L32.9921 18.5975L32.9671 18.468L32.9409 18.339L32.9133 18.2099L32.8846 18.0817L32.8543 17.9534L32.823 17.8259L32.7902 17.6982L32.7563 17.5715L32.721 17.445L32.6845 17.3188L32.6468 17.1933L32.6078 17.0682L32.5674 16.9433L32.526 16.8192L32.4832 16.6953L32.4393 16.5721L32.394 16.4493L32.3477 16.3272L32.2999 16.2054L32.2511 16.0842L32.2011 15.9638L32.1499 15.8439L32.0973 15.7242L32.0439 15.6057L31.9889 15.4872L31.9331 15.3698L31.876 15.2529L31.8176 15.1364L31.7583 15.0208L31.6977 14.9058L31.6359 14.7912L31.5733 14.6778L31.5093 14.5647L31.4443 14.4525L31.3781 14.3409L31.311 14.2303L31.2425 14.12L31.1733 14.0108L31.1027 13.902L31.0313 13.7943L30.9588 13.6874L30.8851 13.581L30.8105 13.4756L30.7349 13.3709L30.6581 13.2672L30.5805 13.1641L30.5018 13.062L30.4222 12.9606L30.3415 12.8602L30.2599 12.7606L30.1773 12.6618L30.0937 12.5639L30.0093 12.4669L29.924 12.3709L29.8377 12.2757L29.7503 12.1813L29.6624 12.0882L29.5731 11.9957L29.4833 11.9044L29.3926 11.8138L29.301 11.7243L29.2083 11.6355L29.1152 11.5481L29.0209 11.4614L28.9259 11.3757L28.8303 11.2912L28.7338 11.2076L28.6361 11.1248L28.538 11.0431L28.4392 10.9626L28.3395 10.883L28.239 10.8044L28.1381 10.7271L28.036 10.6505L27.9335 10.5752L27.8303 10.501L27.7262 10.4276L27.6217 10.3555L27.5161 10.2843L27.4105 10.2145L27.3037 10.1455L27.1966 10.0777L27.0886 10.0109L26.9801 9.94529L26.8711 9.88087L26.7617 9.81765L26.6512 9.75521L26.5407 9.69423L26.4293 9.63421L26.3174 9.5754L26.2051 9.51779L26.0921 9.46123L25.9787 9.40578L25.8649 9.35163L25.7505 9.29852L25.6358 9.2467L25.5205 9.19592L25.4011 9.14479L25.2888 9.09807L25.172 9.05074L25.0553 9.00488L24.9377 8.95989L24.8201 8.91636L24.702 8.87387L24.5837 8.83267L24.4648 8.79251L24.3458 8.75373L24.2263 8.71608L24.1066 8.67964L23.9867 8.64448L23.8664 8.61042L23.7456 8.57754L23.625 8.54599L23.5042 8.51564L23.3825 8.4864L23.2613 8.45852L23.1395 8.43175L23.0177 8.40627L22.8955 8.38195L22.7735 8.35891L22.6511 8.33706L22.5287 8.31647L22.4058 8.29704L22.2833 8.2789L22.1604 8.26195L22.0374 8.24623L21.9144 8.23174L21.7914 8.21849L21.6683 8.20645L21.5452 8.19564L21.4219 8.18604L21.2986 8.17766L21.1756 8.17053L21.0525 8.16461L20.929 8.15991L20.8061 8.15644L20.6831 8.15417L20.5601 8.15314L20.4369 8.15331L20.4122 8.15359L20.451 11.4546L20.5209 11.4542L20.6108 11.4548L20.7007 11.4561L20.7907 11.4585L20.8808 11.4617L20.9709 11.4658L21.061 11.4708L21.1511 11.4767L21.2413 11.4835L21.3315 11.4912L21.4217 11.4998L21.5117 11.5093L21.6019 11.5198L21.692 11.5311L21.782 11.5433L21.872 11.5565L21.9619 11.5705L22.0517 11.5854L22.1416 11.6013L22.2312 11.6181L22.3208 11.6358L22.4103 11.6543L22.4997 11.6738L22.5889 11.6942L22.678 11.7155L22.7669 11.7377L22.8557 11.7607L22.9443 11.7848L23.0327 11.8096L23.121 11.8354L23.2091 11.8621L23.297 11.8897L23.3846 11.9182L23.472 11.9475L23.5593 11.9779L23.6462 12.009L23.7329 12.0411L23.8193 12.074L23.9056 12.1078L23.9915 12.1426L24.0771 12.1781L24.1624 12.2147L24.2474 12.252L24.3321 12.2902L24.4164 12.3293L24.5004 12.3693L24.5842 12.4101L24.6675 12.4518L24.7505 12.4944L24.8331 12.5378L24.9153 12.5821L24.9971 12.6272L25.0786 12.6732L25.1596 12.72L25.2402 12.7677L25.3205 12.8162L25.4002 12.8655L25.4795 12.9157L25.5583 12.9667L25.6367 13.0185L25.7147 13.0711L25.7921 13.1246L25.8691 13.1789L25.9456 13.2339L26.0215 13.2898L26.0969 13.3466L26.1719 13.404L26.2463 13.4623L26.3201 13.5214L26.3934 13.5811L26.4662 13.6417L26.5384 13.7031L26.61 13.7652L26.6811 13.8281L26.7515 13.8918L26.8214 13.9562L26.8906 14.0213L26.9592 14.0872L27.0272 14.1538L27.0946 14.2212L27.1613 14.2892L27.2274 14.358L27.2929 14.4275L27.3576 14.4977L27.4217 14.5686L27.4852 14.6402L27.5479 14.7124L27.61 14.7854L27.6713 14.859L27.732 14.9332L27.7919 15.0082L27.8512 15.0838L27.9096 15.16L27.9674 15.2369L28.0244 15.3144L28.0806 15.3925L28.1362 15.4713L28.1909 15.5506L28.2449 15.6306L28.298 15.7112L28.3504 15.7923L28.402 15.8741L28.4528 15.9564L28.5029 16.0392L28.5521 16.1226L28.6004 16.2067L28.648 16.2911L28.6947 16.3762L28.7405 16.4618L28.7856 16.5479L28.8299 16.6345L28.8731 16.7216L28.9157 16.8093L28.9573 16.8974L28.998 16.9859L29.0379 17.075L29.0769 17.1645L29.115 17.2545L29.1522 17.3449L29.1886 17.4358L29.224 17.5271L29.2584 17.6187L29.292 17.7109L29.3247 17.8033L29.3565 17.8963L29.3873 17.9895L29.4172 18.0833L29.4461 18.1772L29.4742 18.2716L29.5013 18.3664L29.5274 18.4614L29.5525 18.5569L29.5768 18.6526L29.6 18.7486L29.6223 18.8449L29.6436 18.9415L29.6639 19.0384L29.6833 19.1356L29.7017 19.233L29.7191 19.3308L29.7355 19.4287L29.7509 19.5268L29.7653 19.6253L29.7788 19.7238L29.7912 19.8226L29.8027 19.9217L29.8131 20.0209L29.8225 20.1202L29.831 20.2198L29.8384 20.3195L29.8448 20.4193L29.8501 20.5192L29.8545 20.6193L29.8578 20.7196L29.8601 20.8199L29.8614 20.9203L29.8617 21.0208L29.8609 21.1214L29.8591 21.222L29.8563 21.3227L29.8524 21.4235L29.8475 21.5242L29.8416 21.6249L29.8347 21.7258L29.8267 21.8266L29.8176 21.9274L29.8076 22.0282L29.7965 22.1289L29.7844 22.2297L29.7712 22.3303L29.7569 22.4309L29.7417 22.5314L29.7254 22.6319L29.7081 22.7322L29.6897 22.8325L29.6703 22.9327L29.6498 23.0327L29.6283 23.1326L29.6058 23.2323L29.5823 23.3319L29.5577 23.4313L29.532 23.5306L29.5054 23.6297L29.4777 23.7286L29.449 23.8272L29.4192 23.9257L29.3885 24.0239L29.3566 24.122L29.3237 24.2196L29.2899 24.3172L29.2551 24.4144L29.2192 24.5113L29.1822 24.6079L29.1443 24.7043L29.1054 24.8004L29.0655 24.8961L29.0245 24.9915L28.9826 25.0866L28.9397 25.1813L28.8957 25.2756L28.8508 25.3696L28.8048 25.4632L28.7579 25.5564L28.7099 25.6492L28.6611 25.7415L28.6112 25.8335L28.5604 25.9251L28.5086 26.0162L28.4558 26.1068L28.4021 26.197L28.3474 26.2867L28.2917 26.376L28.2351 26.4647L28.1776 26.5529L28.119 26.6406L28.0596 26.7278L27.9993 26.8145L27.938 26.9006L27.8758 26.9862L27.8127 27.0713L27.7487 27.1558L27.6837 27.2396L27.6179 27.3229L27.5511 27.4056L27.4835 27.4876L27.415 27.5692L27.3455 27.65L27.2753 27.7302L27.2041 27.8098L27.1321 27.8887L27.0593 27.967L26.9856 28.0446L26.9111 28.1215L26.8357 28.1977L26.7594 28.2732L26.6825 28.3481L26.6045 28.4222L26.5259 28.4955L26.4465 28.5682L26.3662 28.6401L26.2852 28.7112L26.2033 28.7817L26.1208 28.8513L26.0374 28.9202L25.9533 28.9883L25.8683 29.0556L25.7827 29.1221L25.6964 29.1878L25.6093 29.2527L25.5215 29.3167L25.433 29.38L25.3438 29.4424L25.2539 29.504L25.1632 29.5647L25.0719 29.6245L24.9799 29.6835L24.8873 29.7416L24.794 29.7988L24.7001 29.8552L24.6055 29.9107L24.5104 29.9652L24.4145 30.0188L24.3181 30.0716L24.2211 30.1234L24.1235 30.1742L24.0252 30.2242L23.9265 30.2731L23.8271 30.3212L23.7272 30.3683L23.6267 30.4144L23.5258 30.4596L23.4243 30.5038L23.3222 30.547L23.2197 30.5892L23.1167 30.6305L23.0131 30.6708L22.9091 30.71L22.8047 30.7483L22.6997 30.7855L22.5943 30.8217L22.4885 30.857L22.3823 30.8911L22.2756 30.9242L22.1686 30.9564L22.0611 30.9874L21.9533 31.0174L21.845 31.0463L21.7364 31.0742L21.6275 31.1011L21.5182 31.1269L21.4085 31.1516L21.2986 31.1753L21.1883 31.1978L21.0777 31.2193L20.9669 31.2398L20.8557 31.2591L20.7443 31.2774L20.6327 31.2945L20.5207 31.3105L20.4085 31.3255L20.2961 31.3394L20.1836 31.3521L20.0708 31.3637L19.9578 31.3743L19.8447 31.3837L19.7314 31.392L19.6179 31.3991L19.5042 31.4052L19.3905 31.4101L19.2766 31.4139L19.1626 31.4166L19.0485 31.4181L18.9342 31.4186L18.82 31.4179L18.7057 31.416L18.5913 31.413L18.4769 31.4089L18.3624 31.4036L18.2479 31.3972L18.1335 31.3897L18.019 31.3811L17.9045 31.3712L17.7901 31.3603L17.6757 31.3482L17.5613 31.335L17.4471 31.3206L17.3328 31.3051L17.2187 31.2884L17.1047 31.2706L16.9908 31.2517L16.877 31.2316L16.7633 31.2104L16.6499 31.1881L16.5365 31.1645L16.4233 31.1399L16.3103 31.1141L16.1975 31.0872L16.0849 31.0591L15.9725 31.0299L15.8603 30.9996L15.7484 30.9682L15.6368 30.9356L15.5254 30.9019L15.4142 30.8671L15.3034 30.8311L15.1929 30.7941L15.0826 30.7559L14.9727 30.7166L14.8631 30.6762L14.7539 30.6347L14.645 30.592L14.5365 30.5483L14.4283 30.5034L14.3206 30.4574L14.2133 30.4105L14.1064 30.3623L13.9998 30.313L13.8938 30.2628L13.7882 30.2114L13.683 30.1589L13.5783 30.1053L13.4741 30.0507L13.3704 29.995L13.2672 29.9383L13.1645 29.8805L13.0624 29.8216L12.9607 29.7618L12.8597 29.7008L12.7591 29.6388L12.6592 29.5758L12.5598 29.5118L12.4611 29.4467L12.3629 29.3806L12.2654 29.3135L12.1685 29.2454L12.0722 29.1763L11.9765 29.1062L11.8816 29.0351L11.7872 28.963L11.6936 28.8899L11.6007 28.8159L11.5085 28.7409L11.4169 28.665L11.3261 28.588L11.236 28.5102L11.1467 28.4313L11.058 28.3516L10.9702 28.271L10.8832 28.1894L10.7969 28.107L10.7113 28.0235L10.6266 27.9392L10.5428 27.8541L10.4597 27.768L10.3775 27.6811L10.296 27.5933L10.2155 27.5047L10.1358 27.4151L10.057 27.3248L9.97906 27.2336L9.90191 27.1416L9.8258 27.0487L9.75046 26.955L9.67614 26.8606L9.60269 26.7654L9.53017 26.6694L9.4586 26.5725L9.38789 26.475L9.3182 26.3767L9.24954 26.2776L9.18174 26.1778L9.11497 26.0772L9.04919 25.976L8.9844 25.874L8.92061 25.7713L8.85783 25.668L8.79606 25.5639L8.73533 25.4592L8.67562 25.3538L8.61695 25.2478L8.55933 25.1411L8.50277 25.0338L8.44726 24.9258L8.39282 24.8173L8.33946 24.7081L8.28719 24.5984L8.236 24.4881L8.18591 24.3771L8.13691 24.2657L8.08903 24.1537L8.04227 24.041L7.99661 23.928L7.9521 23.8144L7.90872 23.7003L7.86647 23.5857L7.82536 23.4706L7.78541 23.355L7.74661 23.239L7.70897 23.1225L7.6725 23.0055L7.63721 22.8883L7.60308 22.7705L7.57014 22.6523L7.53839 22.5337L7.50783 22.4147L7.47846 22.2955L7.45029 22.1758L7.42333 22.0557L7.39757 21.9353L7.37304 21.8147L7.34971 21.6937L7.32761 21.5723L7.30673 21.4507L7.28708 21.3289L7.26866 21.2068L7.25147 21.0844L7.23553 20.9618L7.22083 20.8389L7.20738 20.7158L7.19516 20.5925L7.1842 20.469L7.1745 20.3454L7.16604 20.2216L7.15884 20.0976L7.15291 19.9735L7.14824 19.8493L7.14484 19.7249L7.1427 19.6005L7.14182 19.4759L7.14222 19.3512L7.14389 19.2265L7.14684 19.1018L7.15104 18.977L7.15654 18.8521L7.16331 18.7274L7.17135 18.6025L7.18068 18.4777L7.19127 18.3528L7.20315 18.2281L7.21632 18.1033L7.23075 17.9787L7.24647 17.854L7.26347 17.7295L7.28174 17.6051L7.3013 17.4808L7.32213 17.3566L7.34424 17.2326L7.36764 17.1086L7.3923 16.9849L7.41824 16.8614L7.44546 16.738L7.47396 16.6148L7.50371 16.4918L7.53474 16.3691L7.56705 16.2466L7.60062 16.1244L7.63545 16.0024L7.67155 15.8807L7.70891 15.7593L7.74753 15.6381L7.7874 15.5174L7.82853 15.3969L7.87091 15.2768L7.91454 15.157L7.95941 15.0376L8.00553 14.9185L8.05289 14.7999L8.10148 14.6816L8.1513 14.5638L8.20236 14.4464L8.25464 14.3295L8.30814 14.213L8.36286 14.0969L8.41878 13.9813L8.47593 13.8663L8.53427 13.7517L8.59382 13.6377L8.65456 13.5241L8.7165 13.4112L8.77961 13.2987L8.84391 13.1868L8.90939 13.0755L8.97604 12.9648L9.04385 12.8547L9.11283 12.7452L9.18294 12.6363L9.25426 12.5281L9.3266 12.4205L9.40023 12.3136L9.47489 12.2072L9.55066 12.1016L9.62763 11.9968L9.70563 11.8925L9.78483 11.7891L9.86506 11.6863L9.9464 11.5843L10.0288 11.4831L10.1123 11.3826L10.1969 11.2828L10.2825 11.1838L10.3691 11.0857L10.4569 10.9884L10.5456 10.8918L10.6355 10.7961L10.7263 10.7012L10.8181 10.6073L10.9109 10.5141L11.0048 10.4218L11.0997 10.3304L11.1955 10.2398L11.2923 10.1502L11.3901 10.0615L11.4888 9.97371L11.5884 9.88683L11.6891 9.80089L11.7906 9.71591L11.8931 9.63188L11.9964 9.5488L12.1007 9.46675L12.2059 9.38566L12.3119 9.3056L12.4189 9.22649L12.5267 9.14842L12.6353 9.07138L12.7448 8.99538L12.8551 8.92042L12.9662 8.84658L13.0782 8.77368L13.1909 8.70192L13.3045 8.63122L13.4189 8.5616L13.534 8.49308L13.6498 8.42566L13.7664 8.35935L13.8838 8.29416L14.0018 8.2301L14.1206 8.16718L14.2401 8.10539L14.3603 8.04476L14.4811 7.98528L14.6027 7.92697L14.7249 7.86983L14.8477 7.81387L14.9712 7.75908L15.0953 7.7055L15.2201 7.65313L15.3454 7.60195L15.4712 7.55198L15.5977 7.50324L15.7247 7.45572L15.8524 7.40944L15.9805 7.36439L16.1092 7.32059L16.2383 7.27804L16.3679 7.23675L16.4981 7.19671L16.6288 7.15794L16.7599 7.12045L16.8914 7.08423L17.0234 7.0493L17.1558 7.01565L17.2887 6.9833L17.4219 6.95225L17.5555 6.92249L17.6895 6.89404L17.8238 6.86691L17.9585 6.84109L18.0935 6.81659L18.2289 6.79341L18.3646 6.77156L18.5005 6.75104L18.6367 6.73186L18.7732 6.71401L18.8241 6.70786ZM18.8817 11.6039L18.8424 8.26663L18.7306 8.28239L18.6103 8.30055L18.49 8.31992L18.3704 8.3404L18.2507 8.36213L18.1315 8.38497L18.0126 8.40899L17.8942 8.43413L17.776 8.46046L17.658 8.48796L17.5404 8.51659L17.4233 8.54635L17.3063 8.5773L17.194 8.60821L17.0742 8.6425L16.9586 8.67678L16.8435 8.71219L16.729 8.74864L16.6147 8.78629L16.5009 8.82507L16.3876 8.86488L16.2749 8.90573L16.1626 8.94779L16.0508 8.9908L15.9395 9.03502L15.829 9.08019L15.7185 9.12657L15.6089 9.17389L15.4997 9.22226L15.3914 9.27166L15.2833 9.32218L15.1758 9.37374L15.0693 9.42616L14.9629 9.47979L14.8577 9.53429L14.7526 9.58999L14.6485 9.64639L14.5446 9.70417L14.4418 9.76255L14.3396 9.82205L14.2379 9.88259L14.1371 9.944L14.0367 10.0065L13.9373 10.0697L13.8384 10.1341L13.7405 10.1993L13.6432 10.2654L13.5466 10.3325L13.4506 10.4005L13.3557 10.4692L13.2613 10.539L13.1677 10.6097L13.075 10.6812L12.9831 10.7535L12.8918 10.8268L12.8015 10.9008L12.7121 10.9757L12.6233 11.0516L12.5356 11.128L12.4485 11.2055L12.3623 11.2838L12.277 11.3627L12.1926 11.4424L12.1089 11.5231L12.0263 11.6043L11.9446 11.6863L11.8636 11.7692L11.7836 11.8527L11.7045 11.9371L11.6263 12.0221L11.5491 12.1078L11.4727 12.1942L11.3972 12.2814L11.323 12.3691L11.2494 12.4576L11.1768 12.5468L11.1053 12.6366L11.0347 12.7269L10.9649 12.8181L10.8963 12.9097L10.8286 13.002L10.7619 13.095L10.6961 13.1885L10.6315 13.2825L10.5678 13.3771L10.5051 13.4724L10.4434 13.5682L10.3828 13.6644L10.3232 13.7612L10.2646 13.8587L10.207 13.9565L10.1505 14.0548L10.0949 14.1537L10.0406 14.2529L9.9872 14.3527L9.93474 14.453L9.88357 14.5536L9.83334 14.6548L9.78423 14.7564L9.73614 14.8582L9.68917 14.9606L9.64323 15.0633L9.5984 15.1664L9.5546 15.2699L9.512 15.3737L9.47043 15.4778L9.42989 15.5824L9.39046 15.6873L9.35223 15.7924L9.31494 15.8979L9.27894 16.0035L9.24389 16.1096L9.21003 16.2159L9.1772 16.3225L9.14557 16.4292L9.11497 16.5362L9.08557 16.6434L9.05721 16.7509L9.02999 16.8585L9.00389 16.9664L8.97891 17.0744L8.95504 17.1826L8.93228 17.291L8.91067 17.3994L8.89016 17.508L8.87077 17.6168L8.85252 17.7256L8.83537 17.8346L8.81937 17.9435L8.80446 18.0527L8.7907 18.1618L8.77805 18.2711L8.76652 18.3803L8.75611 18.4897L8.74683 18.599L8.73867 18.7083L8.73162 18.8177L8.72569 18.927L8.72088 19.0363L8.7172 19.1455L8.71462 19.2547L8.71316 19.3639L8.71281 19.473L8.71357 19.582L8.71545 19.6909L8.71843 19.7997L8.72251 19.9084L8.72771 20.017L8.734 20.1255L8.74139 20.2337L8.74988 20.3419L8.75946 20.4499L8.77014 20.5577L8.78191 20.6653L8.79476 20.7727L8.80871 20.88L8.82372 20.9869L8.83983 21.0937L8.857 21.2001L8.87525 21.3064L8.89457 21.4125L8.91494 21.5181L8.93639 21.6236L8.95888 21.7287L8.98244 21.8337L9.00702 21.9381L9.03269 22.0423L9.05938 22.1462L9.08711 22.2498L9.11583 22.3529L9.14566 22.4558L9.17643 22.5582L9.20832 22.6603L9.24114 22.762L9.275 22.8632L9.30989 22.964L9.34571 23.0644L9.38257 23.1645L9.42046 23.264L9.45929 23.3631L9.49906 23.4617L9.53986 23.5599L9.5816 23.6576L9.62437 23.7548L9.668 23.8515L9.71266 23.9476L9.75826 24.0433L9.80472 24.1385L9.8522 24.233L9.90054 24.3272L9.94983 24.4207L10.0001 24.5136L10.0511 24.606L10.1032 24.6978L10.1561 24.789L10.2099 24.8796L10.2646 24.9697L10.3201 25.0591L10.3765 25.1479L10.4339 25.2361L10.4919 25.3235L10.5509 25.4105L10.6107 25.4967L10.6714 25.5823L10.7328 25.6672L10.7951 25.7514L10.8582 25.8349L10.9222 25.9178L10.9868 25.9999L11.0523 26.0814L11.1185 26.1621L11.1856 26.2422L11.2534 26.3214L11.3219 26.4001L11.3912 26.4778L11.4612 26.5549L11.5319 26.6312L11.6034 26.7067L11.6756 26.7815L11.7485 26.8556L11.8221 26.9288L11.8964 27.0012L11.9714 27.0729L12.0469 27.1437L12.1233 27.2139L12.2002 27.2831L12.2777 27.3515L12.356 27.4191L12.4349 27.4858L12.5143 27.5518L12.5944 27.6168L12.675 27.6811L12.7563 27.7445L12.8381 27.8071L12.9206 27.8688L13.0035 27.9296L13.087 27.9895L13.1711 28.0486L13.2557 28.1068L13.3409 28.1641L13.4265 28.2205L13.5126 28.2761L13.5993 28.3307L13.6864 28.3844L13.774 28.4373L13.8621 28.4892L13.9505 28.5402L14.0396 28.5903L14.1289 28.6394L14.2188 28.6877L14.3091 28.735L14.3997 28.7813L14.4908 28.8268L14.5823 28.8713L14.6741 28.9149L14.7663 28.9575L14.8589 28.9992L14.9518 29.0399L15.045 29.0796L15.1386 29.1185L15.2326 29.1563L15.3267 29.1932L15.4212 29.2291L15.516 29.2641L15.6111 29.2981L15.7064 29.3311L15.8021 29.3632L15.8979 29.3942L15.994 29.4244L16.0903 29.4535L16.1868 29.4816L16.2835 29.5088L16.3805 29.535L16.4776 29.5603L16.5749 29.5845L16.6723 29.6077L16.7699 29.63L16.8677 29.6513L16.9656 29.6716L17.0636 29.6909L17.1618 29.7092L17.26 29.7265L17.3584 29.7429L17.4568 29.7582L17.5553 29.7727L17.6538 29.786L17.7524 29.7985L17.8511 29.8099L17.9497 29.8203L18.0485 29.8297L18.1472 29.8382L18.2459 29.8456L18.3447 29.8522L18.4433 29.8576L18.542 29.8622L18.6407 29.8658L18.7393 29.8683L18.8378 29.8699L18.9363 29.8705L19.0347 29.8702L19.133 29.8688L19.2312 29.8665L19.3293 29.8633L19.4273 29.859L19.5251 29.8538L19.6229 29.8476L19.7204 29.8405L19.8179 29.8323L19.9151 29.8233L20.0122 29.8132L20.1091 29.8023L20.2058 29.7904L20.3023 29.7775L20.3986 29.7638L20.4947 29.749L20.5905 29.7333L20.686 29.7167L20.7814 29.6991L20.8764 29.6806L20.9712 29.6612L21.0659 29.6409L21.16 29.6196L21.2539 29.5975L21.3475 29.5744L21.4409 29.5504L21.5339 29.5256L21.6265 29.4997L21.7188 29.4731L21.8108 29.4455L21.9023 29.4171L21.9935 29.3877L22.0845 29.3575L22.1749 29.3264L22.265 29.2945L22.3547 29.2616L22.4439 29.228L22.5327 29.1934L22.6211 29.158L22.7091 29.1217L22.7966 29.0847L22.8836 29.0468L22.9703 29.0081L23.0563 28.9685L23.142 28.9281L23.2272 28.8869L23.3117 28.845L23.3961 28.8021L23.4797 28.7586L23.5629 28.7141L23.6453 28.669L23.7275 28.6231L23.8091 28.5763L23.89 28.5288L23.9705 28.4806L24.0503 28.4316L24.1295 28.3819L24.2084 28.3313L24.2864 28.2802L24.364 28.2282L24.441 28.1754L24.5173 28.1221L24.5929 28.0681L24.6682 28.0132L24.7426 27.9578L24.8165 27.9016L24.8897 27.8447L24.9621 27.7872L25.0342 27.7289L25.1055 27.67L25.1759 27.6106L25.246 27.5503L25.3151 27.4895L25.3836 27.4282L25.4517 27.366L25.5187 27.3034L25.5852 27.2401L25.6511 27.1762L25.716 27.1118L25.7804 27.0467L25.8441 26.981L25.907 26.9148L25.9691 26.848L26.0305 26.7807L26.0913 26.7128L26.1511 26.6445L26.2104 26.5754L26.2688 26.506L26.3264 26.436L26.3834 26.3654L26.4395 26.2945L26.4948 26.2229L26.5494 26.151L26.6033 26.0785L26.6562 26.0056L26.7083 25.9323L26.7599 25.8583L26.8104 25.7841L26.8602 25.7094L26.9093 25.6342L26.9573 25.5588L27.0048 25.4828L27.0514 25.4064L27.0971 25.3297L27.142 25.2526L27.1862 25.1749L27.2293 25.0973L27.2718 25.0189L27.3134 24.9404L27.354 24.8615L27.3941 24.782L27.433 24.7028L27.4713 24.6226L27.5085 24.5427L27.5452 24.462L27.5807 24.3814L27.6155 24.3001L27.6495 24.219L27.6825 24.1374L27.7147 24.0556L27.7461 23.9734L27.7764 23.8913L27.8062 23.8086L27.8348 23.7259L27.8627 23.643L27.8897 23.5598L27.9158 23.4764L27.9411 23.3929L27.9654 23.3093L27.9889 23.2253L28.0115 23.1414L28.0332 23.0572L28.0541 22.9729L28.074 22.8886L28.0931 22.8039L28.1113 22.7193L28.1287 22.6345L28.1451 22.5498L28.1607 22.4649L28.1753 22.3797L28.1891 22.2948L28.2021 22.2096L28.2141 22.1244L28.2252 22.0393L28.2355 21.9541L28.2449 21.8686L28.2534 21.7837L28.2611 21.6981L28.2679 21.6128L28.2737 21.5278L28.2788 21.4425L28.2829 21.3573L28.2862 21.2722L28.2886 21.1869L28.29 21.1021L28.2907 21.0169L28.2905 20.932L28.2894 20.8471L28.2875 20.7626L28.2846 20.6779L28.2809 20.5933L28.2764 20.5091L28.271 20.4247L28.2647 20.3405L28.2577 20.2567L28.2497 20.1726L28.2409 20.0891L28.2312 20.0054L28.2208 19.9222L28.2095 19.839L28.1973 19.7559L28.1843 19.6732L28.1705 19.5907L28.1558 19.5084L28.1403 19.4264L28.1239 19.3442L28.1068 19.2627L28.0889 19.1815L28.0701 19.1003L28.0505 19.0193L28.0301 18.9389L28.0089 18.8584L27.9869 18.7785L27.9641 18.6987L27.9406 18.6194L27.9162 18.5402L27.891 18.4614L27.8651 18.383L27.8385 18.3049L27.8109 18.227L27.7828 18.1497L27.7537 18.0725L27.724 17.9959L27.6935 17.9195L27.6622 17.8434L27.6302 17.768L27.5974 17.6927L27.5639 17.618L27.5297 17.5437L27.4948 17.4696L27.459 17.396L27.4228 17.323L27.3856 17.2502L27.3479 17.1781L27.3094 17.1064L27.2701 17.0348L27.2303 16.9641L27.1897 16.8936L27.1485 16.8237L27.1065 16.7541L27.0641 16.6853L27.0207 16.6166L26.9769 16.5487L26.9323 16.4813L26.8871 16.4144L26.8412 16.3478L26.7947 16.2819L26.7478 16.2166L26.6999 16.1516L26.6517 16.0873L26.6027 16.0235L26.5533 15.9603L26.5031 15.8976L26.4523 15.8355L26.401 15.7739L26.3491 15.7128L26.2967 15.6525L26.2436 15.5926L26.1901 15.5335L26.1359 15.4747L26.0814 15.4169L26.0261 15.3593L25.9704 15.3025L25.914 15.2461L25.8573 15.1906L25.8001 15.1357L25.7423 15.0813L25.684 15.0274L25.6252 14.9744L25.5659 14.922L25.506 14.87L25.4461 14.8191L25.3853 14.7684L25.3242 14.7185L25.2627 14.6694L25.2006 14.6207L25.1382 14.5728L25.0756 14.5258L25.0121 14.4791L24.9483 14.4331L24.8844 14.3881L24.8197 14.3434L24.7551 14.2998L24.6899 14.2567L24.6242 14.2142L24.5581 14.1724L24.4919 14.1314L24.4251 14.091L24.3581 14.0515L24.2906 14.0124L24.2231 13.9743L24.1551 13.9368L24.0867 13.9L24.018 13.8639L23.9492 13.8286L23.8799 13.7939L23.8103 13.76L23.7407 13.7268L23.6708 13.6944L23.6002 13.6626L23.5299 13.6316L23.4591 13.6014L23.3879 13.5718L23.3167 13.543L23.2454 13.515L23.1737 13.4878L23.1017 13.4611L23.0297 13.4353L22.9574 13.4102L22.8849 13.3858L22.8125 13.3623L22.7397 13.3395L22.6669 13.3174L22.5935 13.2959L22.5204 13.2754L22.4471 13.2555L22.3737 13.2364L22.3001 13.218L22.2263 13.2004L22.1525 13.1836L22.0788 13.1675L22.0048 13.1521L21.9305 13.1375L21.8567 13.1237L21.7824 13.1106L21.7083 13.0983L21.6338 13.0866L21.5597 13.0758L21.4851 13.0656L21.4109 13.0564L21.3365 13.0477L21.2621 13.0399L21.1878 13.0328L21.1133 13.0264L21.0392 13.0208L20.9646 13.016L20.8904 13.0118L20.8163 13.0084L20.7418 13.0058L20.6678 13.0039L20.5937 13.0027L20.5198 13.0023L20.4692 13.0025L20.5075 16.2631L20.5304 16.2631L20.5729 16.2637L20.6155 16.2648L20.6582 16.2662L20.7009 16.2681L20.7437 16.2705L20.7864 16.2732L20.8293 16.2765L20.8721 16.2802L20.9151 16.2844L20.958 16.289L21.001 16.294L21.044 16.2995L21.0869 16.3055L21.13 16.3118L21.173 16.3188L21.216 16.3261L21.259 16.3339L21.302 16.3422L21.3449 16.3508L21.3879 16.36L21.4308 16.3696L21.4738 16.3797L21.5165 16.3903L21.5594 16.4012L21.6022 16.4127L21.6449 16.4246L21.6875 16.437L21.7301 16.4499L21.7727 16.4632L21.8151 16.477L21.8575 16.4912L21.8998 16.5059L21.942 16.521L21.9841 16.5367L22.0261 16.5527L22.068 16.5692L22.1099 16.5862L22.1515 16.6037L22.1931 16.6215L22.2346 16.6399L22.2759 16.6588L22.3171 16.678L22.3582 16.6978L22.3991 16.7179L22.4399 16.7386L22.4804 16.7597L22.5209 16.7812L22.5611 16.8033L22.6013 16.8257L22.6412 16.8486L22.681 16.8719L22.7205 16.8957L22.7599 16.9199L22.7991 16.9446L22.8381 16.9698L22.8768 16.9952L22.9154 17.0212L22.9538 17.0478L22.9919 17.0746L23.0298 17.1019L23.0675 17.1296L23.105 17.1578L23.1422 17.1864L23.1791 17.2154L23.2159 17.2448L23.2523 17.2747L23.2885 17.3049L23.3245 17.3357L23.3602 17.3668L23.3956 17.3983L23.4307 17.4303L23.4655 17.4626L23.5001 17.4954L23.5343 17.5285L23.5683 17.5621L23.6019 17.5961L23.6352 17.6304L23.6683 17.6652L23.701 17.7003L23.7334 17.7359L23.7654 17.7718L23.7972 17.8081L23.8286 17.8448L23.8596 17.8819L23.8904 17.9192L23.9207 17.9571L23.9507 17.9952L23.9804 18.0338L24.0097 18.0727L24.0387 18.1119L24.0672 18.1516L24.0953 18.1915L24.1232 18.2318L24.1506 18.2725L24.1776 18.3135L24.2043 18.3548L24.2306 18.3965L24.2564 18.4385L24.2819 18.4808L24.3069 18.5234L24.3315 18.5664L24.3557 18.6096L24.3795 18.6533L24.4029 18.6971L24.4259 18.7413L24.4483 18.7858L24.4704 18.8306L24.492 18.8756L24.5132 18.9211L24.5339 18.9667L24.5543 19.0126L24.5741 19.0588L24.5935 19.1053L24.6125 19.152L24.6309 19.199L24.6489 19.2462L24.6665 19.2937L24.6835 19.3415L24.7001 19.3895L24.7162 19.4377L24.7318 19.4861L24.7469 19.5349L24.7615 19.5837L24.7757 19.6329L24.7893 19.6823L24.8025 19.7318L24.8152 19.7815L24.8273 19.8315L24.8389 19.8817L24.8501 19.932L24.8607 19.9826L24.8708 20.0333L24.8803 20.084L24.8894 20.1352L24.898 20.1864L24.906 20.2377L24.9135 20.2892L24.9204 20.3409L24.9269 20.3927L24.9328 20.4447L24.9382 20.4968L24.943 20.5489L24.9473 20.6013L24.951 20.6538L24.9542 20.7063L24.9569 20.759L24.9589 20.8117L24.9605 20.8646L24.9615 20.9175L24.962 20.9706L24.9618 21.0236L24.9612 21.0768L24.96 21.1301L24.9582 21.1834L24.9559 21.2367L24.953 21.2901L24.9496 21.3436L24.9455 21.397L24.9409 21.4506L24.9358 21.5041L24.9301 21.5577L24.9238 21.6112L24.9169 21.6648L24.9095 21.7185L24.9016 21.772L24.893 21.8256L24.8838 21.8791L24.8741 21.9327L24.8639 21.9862L24.8531 22.0397L24.8416 22.0931L24.8296 22.1465L24.8171 22.1999L24.8039 22.2531L24.7901 22.3064L24.7759 22.3595L24.761 22.4127L24.7456 22.4656L24.7295 22.5185L24.713 22.5714L24.6959 22.6241L24.6781 22.6768L24.6599 22.7293L24.6409 22.7816L24.6215 22.8339L24.6015 22.886L24.5809 22.9381L24.5597 22.9899L24.5381 23.0416L24.5158 23.0932L24.4929 23.1447L24.4695 23.1959L24.4455 23.2469L24.4209 23.2979L24.3959 23.3486L24.3701 23.3991L24.3439 23.4495L24.3171 23.4995L24.2897 23.5495L24.2619 23.5992L24.2334 23.6487L24.2044 23.698L24.1749 23.747L24.1447 23.7959L24.1141 23.8444L24.0829 23.8927L24.0511 23.9408L24.0189 23.9885L23.9861 24.0361L23.9527 24.0834L23.9188 24.1303L23.8844 24.1771L23.8494 24.2234L23.8139 24.2696L23.7779 24.3154L23.7414 24.3609L23.7044 24.4061L23.6669 24.451L23.6288 24.4956L23.5901 24.5398L23.5511 24.5837L23.5115 24.6273L23.4713 24.6705L23.4308 24.7133L23.3897 24.7559L23.3481 24.798L23.306 24.8397L23.2635 24.8812L23.2204 24.9222L23.1768 24.9628L23.1329 25.0031L23.0884 25.043L23.0435 25.0824L22.998 25.1215L22.9522 25.1601L22.9058 25.1983L22.859 25.2361L22.8118 25.2735L22.7641 25.3104L22.716 25.347L22.6674 25.3831L22.6185 25.4186L22.569 25.4538L22.5192 25.4886L22.4689 25.5228L22.4183 25.5566L22.3672 25.5899L22.3157 25.6228L22.2637 25.6552L22.2114 25.6871L22.1587 25.7184L22.1057 25.7493L22.0522 25.7797L21.9983 25.8096L21.9441 25.8391L21.8895 25.8679L21.8345 25.8963L21.7792 25.9241L21.7235 25.9515L21.6675 25.9783L21.6111 26.0045L21.5544 26.0303L21.4973 26.0554L21.44 26.0801L21.3823 26.1042L21.3243 26.1277L21.2659 26.1507L21.2073 26.1731L21.1483 26.195L21.0891 26.2163L21.0296 26.237L20.9698 26.2571L20.9097 26.2767L20.8493 26.2957L20.7887 26.3141L20.7278 26.3319L20.6667 26.3491L20.6053 26.3658L20.5437 26.3818L20.4818 26.3972L20.4197 26.412L20.3573 26.4262L20.2948 26.4398L20.232 26.4528L20.169 26.4652L20.1059 26.4769L20.0425 26.4881L19.9789 26.4986L19.9152 26.5085L19.8513 26.5177L19.7873 26.5263L19.723 26.5344L19.6586 26.5417L19.5941 26.5484L19.5293 26.5545L19.4645 26.5598L19.3996 26.5647L19.3344 26.5687L19.2693 26.5723L19.204 26.5751L19.1386 26.5773L19.073 26.5788L19.0074 26.5796L18.9418 26.5799L18.876 26.5794L18.8102 26.5783L18.7443 26.5765L18.6784 26.5741L18.6124 26.571L18.5463 26.5672L18.4802 26.5628L18.4141 26.5577L18.348 26.5519L18.2819 26.5454L18.2158 26.5383L18.1496 26.5305L18.0835 26.522L18.0173 26.5129L17.9513 26.5031L17.8852 26.4926L17.8192 26.4814L17.7532 26.4696L17.6873 26.4571L17.6213 26.4439L17.5555 26.43L17.4898 26.4155L17.4241 26.4002L17.3585 26.3844L17.293 26.3679L17.2276 26.3506L17.1623 26.3326L17.0971 26.3141L17.0321 26.2948L16.9672 26.2748L16.9024 26.2542L16.8377 26.233L16.7732 26.211L16.7089 26.1884L16.6447 26.1651L16.5807 26.1411L16.5169 26.1165L16.4532 26.0911L16.3898 26.0652L16.3265 26.0386L16.2635 26.0113L16.2007 25.9833L16.1381 25.9547L16.0757 25.9254L16.0135 25.8954L15.9516 25.8649L15.89 25.8336L15.8286 25.8017L15.7675 25.7692L15.7067 25.736L15.6461 25.7022L15.5858 25.6677L15.5257 25.6326L15.4661 25.5968L15.4067 25.5604L15.3476 25.5234L15.2888 25.4857L15.2303 25.4475L15.1722 25.4085L15.1145 25.369L15.0571 25.3288L15 25.2881L14.9433 25.2467L14.887 25.2046L14.831 25.162L14.7755 25.1189L14.7203 25.075L14.6655 25.0306L14.6111 24.9856L14.5571 24.94L14.5035 24.8938L14.4503 24.847L14.3976 24.7997L14.3453 24.7517L14.2935 24.7032L14.2421 24.6541L14.1911 24.6045L14.1406 24.5543L14.0906 24.5035L14.0411 24.4522L13.9919 24.4003L13.9433 24.348L13.8953 24.295L13.8477 24.2415L13.8005 24.1875L13.754 24.1329L13.7079 24.0779L13.6623 24.0223L13.6173 23.9662L13.5728 23.9096L13.5288 23.8525L13.4854 23.7949L13.4425 23.7368L13.4003 23.6782L13.3585 23.6192L13.3173 23.5596L13.2767 23.4995L13.2366 23.4391L13.1972 23.3781L13.1584 23.3167L13.1201 23.2549L13.0824 23.1926L13.0453 23.1298L13.0089 23.0667L12.9731 23.003L12.9378 22.939L12.9032 22.8746L12.8693 22.8098L12.8359 22.7445L12.8032 22.6788L12.7711 22.6129L12.7397 22.5464L12.709 22.4796L12.6789 22.4124L12.6495 22.3449L12.6207 22.2769L12.5926 22.2087L12.5651 22.14L12.5384 22.0711L12.5123 22.0017L12.4871 21.9321L12.4624 21.8622L12.4384 21.792L12.4151 21.7214L12.3925 21.6505L12.3707 21.5793L12.3495 21.5079L12.329 21.4361L12.3093 21.3641L12.2903 21.2918L12.272 21.2193L12.2545 21.1465L12.2377 21.0735L12.2216 21.0002L12.2063 20.9267L12.1917 20.8529L12.1778 20.779L12.1647 20.7048L12.1523 20.6305L12.1408 20.5559L12.1299 20.4811L12.1198 20.4063L12.1105 20.3311L12.1019 20.2559L12.0941 20.1804L12.0871 20.1049L12.0809 20.0291L12.0754 19.9533L12.0707 19.8773L12.0667 19.8012L12.0635 19.725L12.0611 19.6487L12.0596 19.5722L12.0588 19.4958L12.0587 19.4192L12.0595 19.3425L12.0611 19.2658L12.0635 19.1891L12.0666 19.1122L12.0706 19.0353L12.0753 18.9585L12.0808 18.8815L12.0871 18.8046L12.0942 18.7276L12.1021 18.6507L12.1109 18.5737L12.1204 18.4968L12.1307 18.4199L12.1418 18.343L12.1537 18.2662L12.1665 18.1894L12.1799 18.1126L12.1943 18.0359L12.2094 17.9593L12.2254 17.8828L12.2421 17.8064L12.2596 17.73L12.2779 17.6539L12.297 17.5777L12.317 17.5017L12.3377 17.4259L12.3593 17.3501L12.3815 17.2745L12.4047 17.1991L12.4286 17.1238L12.4533 17.0486L12.4788 16.9737L12.5051 16.8989L12.5322 16.8244L12.5601 16.7501L12.5888 16.676L12.6183 16.602L12.6485 16.5283L12.6796 16.4549L12.7114 16.3816L12.744 16.3087L12.7774 16.2359L12.8116 16.1635L12.8465 16.0914L12.8822 16.0194L12.9186 15.9478L12.9559 15.8766L12.9939 15.8056L13.0327 15.7349L13.0722 15.6646L13.1125 15.5945L13.1536 15.5249L13.1954 15.4556L13.2379 15.3865L13.2813 15.318L13.3253 15.2497L13.3701 15.1818L13.4156 15.1143L13.4619 15.0472L13.5089 14.9806L13.5566 14.9143L13.605 14.8484L13.6541 14.783L13.704 14.718L13.7546 14.6534L13.8059 14.5893L13.858 14.5256L13.9106 14.4625L13.964 14.3997L14.0181 14.3374L14.0729 14.2757L14.1283 14.2143L14.1845 14.1536L14.2413 14.0933L14.2988 14.0336L14.3569 13.9743L14.4157 13.9156L14.4752 13.8574L14.5353 13.7998L14.5961 13.7427L14.6574 13.6861L14.7194 13.6302L14.7821 13.5747L14.8454 13.52L14.9093 13.4656L14.9738 13.412L15.0389 13.359L15.1046 13.3065L15.1709 13.2547L15.2378 13.2034L15.3053 13.1528L15.3733 13.1028L15.442 13.0535L15.5111 13.0048L15.5809 12.9567L15.6513 12.9093L15.7221 12.8626L15.7935 12.8165L15.8655 12.7711L15.9379 12.7264L16.0109 12.6823L16.0844 12.639L16.1585 12.5963L16.2329 12.5543L16.3079 12.5131L16.3835 12.4726L16.4594 12.4327L16.5359 12.3936L16.6127 12.3553L16.6901 12.3176L16.768 12.2807L16.8462 12.2446L16.9249 12.2091L17.004 12.1745L17.0837 12.1406L17.1636 12.1074L17.2439 12.0751L17.3248 12.0435L17.4059 12.0127L17.4875 11.9826L17.5694 11.9534L17.6518 11.9249L17.7344 11.8973L17.8175 11.8704L17.9008 11.8443L17.9845 11.8191L18.0685 11.7947L18.1529 11.7711L18.2375 11.7483L18.3225 11.7263L18.4078 11.7051L18.4933 11.6848L18.5792 11.6654L18.6653 11.6467L18.7517 11.629L18.8382 11.612L18.8817 11.6039ZM19.9462 17.8742L18.9582 18.112L18.9002 13.1811L18.8537 13.1916L18.7835 13.2083L18.7135 13.2256L18.644 13.2436L18.5746 13.2623L18.5056 13.2816L18.4366 13.3017L18.3683 13.3223L18.2998 13.3437L18.2321 13.3656L18.1643 13.3883L18.097 13.4116L18.0299 13.4355L17.9632 13.46L17.897 13.4852L17.8309 13.5111L17.7652 13.5375L17.6999 13.5645L17.6346 13.5923L17.5703 13.6205L17.5059 13.6495L17.4421 13.679L17.3784 13.7092L17.3153 13.7399L17.2524 13.7712L17.1902 13.8031L17.1282 13.8355L17.0667 13.8686L17.0056 13.9022L16.9448 13.9364L16.8845 13.9712L16.8248 14.0065L16.7651 14.0425L16.7061 14.0788L16.6476 14.1158L16.5895 14.1533L16.5317 14.1914L16.4746 14.23L16.4178 14.2691L16.3615 14.3086L16.3058 14.3487L16.2503 14.3894L16.1955 14.4306L16.1411 14.4722L16.0872 14.5144L16.0339 14.5569L15.9811 14.5999L15.9287 14.6436L15.8767 14.6877L15.8255 14.7321L15.7746 14.7771L15.7243 14.8224L15.6745 14.8683L15.6252 14.9147L15.5765 14.9614L15.5284 15.0084L15.4806 15.0561L15.4336 15.1041L15.387 15.1525L15.3411 15.2012L15.2955 15.2506L15.2507 15.3001L15.2063 15.3501L15.1625 15.4005L15.1194 15.4511L15.0767 15.5024L15.0348 15.5537L14.9933 15.6057L14.9525 15.6577L14.9121 15.7103L14.8724 15.7633L14.8333 15.8164L14.7947 15.8698L14.7569 15.9236L14.7195 15.9779L14.6827 16.0323L14.6466 16.0871L14.6111 16.1421L14.5763 16.1973L14.5419 16.253L14.5083 16.3088L14.4751 16.3651L14.4427 16.4214L14.4108 16.4781L14.3795 16.535L14.349 16.5921L14.319 16.6494L14.2897 16.707L14.2609 16.765L14.2329 16.8229L14.2054 16.8812L14.1785 16.9396L14.1524 16.9983L14.1268 17.0571L14.1018 17.1162L14.0776 17.1752L14.0539 17.2346L14.0309 17.2941L14.0085 17.3538L13.9868 17.4135L13.9657 17.4735L13.9452 17.5336L13.9254 17.5938L13.9062 17.6541L13.8877 17.7147L13.8698 17.7752L13.8527 17.8357L13.836 17.8965L13.82 17.9574L13.8047 18.0183L13.7901 18.0793L13.776 18.1403L13.7627 18.2015L13.75 18.2627L13.7379 18.3239L13.7264 18.3851L13.7156 18.4465L13.7055 18.5077L13.696 18.569L13.6871 18.6305L13.6788 18.6918L13.6713 18.7533L13.6643 18.8145L13.658 18.8759L13.6523 18.9374L13.6473 18.9986L13.6429 19.0599L13.6391 19.1213L13.636 19.1824L13.6335 19.2435L13.6316 19.3046L13.6304 19.3658L13.6297 19.4267L13.6298 19.4876L13.6304 19.5484L13.6317 19.6092L13.6336 19.6698L13.6361 19.7304L13.6391 19.7908L13.6429 19.8511L13.6473 19.9113L13.6523 19.9714L13.6578 20.0314L13.664 20.0913L13.6708 20.1508L13.6781 20.2105L13.6861 20.2697L13.6948 20.3291L13.7039 20.388L13.7137 20.4469L13.7241 20.5058L13.7351 20.5642L13.7466 20.6226L13.7587 20.6806L13.7715 20.7387L13.7848 20.7964L13.7987 20.854L13.8131 20.9111L13.8281 20.9684L13.8437 21.0251L13.8598 21.0819L13.8765 21.1382L13.8937 21.1944L13.9115 21.2503L13.9299 21.3058L13.9488 21.3614L13.9683 21.4165L13.9883 21.4712L14.0087 21.5259L14.0298 21.5802L14.0514 21.6342L14.0735 21.6879L14.0961 21.7413L14.1193 21.7945L14.143 21.8473L14.1671 21.8998L14.1918 21.952L14.2169 22.0038L14.2427 22.0555L14.2688 22.1067L14.2955 22.1575L14.3226 22.2082L14.3503 22.2583L14.3784 22.3082L14.407 22.3578L14.436 22.4069L14.4656 22.4558L14.4955 22.5042L14.5259 22.5522L14.5569 22.6L14.5882 22.6473L14.62 22.6944L14.6521 22.7408L14.6848 22.787L14.7179 22.8328L14.7513 22.8782L14.7853 22.9232L14.8196 22.9678L14.8543 23.0119L14.8895 23.0557L14.925 23.0992L14.9609 23.142L14.9973 23.1846L15.034 23.2267L15.071 23.2684L15.1086 23.3096L15.1463 23.3503L15.1846 23.3908L15.2231 23.4307L15.262 23.4702L15.3013 23.5092L15.3409 23.5478L15.3809 23.586L15.4211 23.6237L15.4618 23.6609L15.5027 23.6977L15.544 23.7339L15.5855 23.7698L15.6274 23.8052L15.6695 23.8401L15.7121 23.8745L15.7549 23.9085L15.7979 23.9419L15.8412 23.9749L15.8849 24.0075L15.9287 24.0395L15.9729 24.071L16.0173 24.1021L16.0619 24.1327L16.1069 24.1627L16.1519 24.1923L16.1973 24.2214L16.2431 24.25L16.2888 24.278L16.3349 24.3057L16.3812 24.3328L16.4276 24.3593L16.4742 24.3854L16.5213 24.411L16.5683 24.4361L16.6156 24.4606L16.663 24.4846L16.7107 24.5082L16.7584 24.5312L16.8065 24.5537L16.8545 24.5757L16.9027 24.5971L16.9512 24.6181L16.9998 24.6386L17.0484 24.6585L17.0973 24.678L17.1462 24.6968L17.1954 24.7152L17.2445 24.7331L17.2939 24.7504L17.3432 24.7672L17.3927 24.7835L17.4423 24.7993L17.492 24.8146L17.5417 24.8293L17.5915 24.8435L17.6415 24.8572L17.6915 24.8704L17.7414 24.883L17.7915 24.8952L17.8415 24.9068L17.8917 24.9178L17.9419 24.9284L17.9921 24.9385L18.0424 24.948L18.0926 24.957L18.1429 24.9656L18.1932 24.9735L18.2435 24.981L18.2937 24.9879L18.344 24.9943L18.3942 25.0003L18.4445 25.0057L18.4948 25.0106L18.545 25.015L18.5951 25.0189L18.6452 25.0222L18.6953 25.0251L18.7453 25.0274L18.7952 25.0293L18.8453 25.0306L18.895 25.0315L18.9447 25.0318L18.9944 25.0316L19.0439 25.031L19.0936 25.0298L19.143 25.0282L19.1922 25.0261L19.2414 25.0234L19.2907 25.0203L19.3396 25.0167L19.3885 25.0126L19.4372 25.0081L19.4859 25.0031L19.5344 24.9974L19.5827 24.9915L19.631 24.985L19.679 24.978L19.7268 24.9706L19.7747 24.9627L19.8223 24.9543L19.8697 24.9455L19.917 24.9362L19.9642 24.9264L20.011 24.9163L20.0576 24.9056L20.1042 24.8945L20.1506 24.8829L20.1967 24.871L20.2427 24.8586L20.2883 24.8457L20.334 24.8323L20.3793 24.8186L20.4242 24.8044L20.4693 24.7897L20.5139 24.7747L20.5583 24.7593L20.6024 24.7434L20.6463 24.7271L20.6901 24.7104L20.7335 24.6933L20.7767 24.6757L20.8196 24.6579L20.8623 24.6395L20.9048 24.6207L20.9468 24.6016L20.9888 24.5821L21.0304 24.5623L21.0716 24.542L21.1127 24.5213L21.1534 24.5003L21.1939 24.4789L21.2341 24.4571L21.274 24.435L21.3135 24.4125L21.3528 24.3896L21.3918 24.3664L21.4304 24.3428L21.4687 24.3189L21.5068 24.2946L21.5445 24.2701L21.5819 24.2451L21.619 24.2199L21.6557 24.1943L21.6922 24.1683L21.7282 24.1422L21.7639 24.1156L21.7993 24.0887L21.8344 24.0615L21.8691 24.0341L21.9035 24.0062L21.9375 23.9783L21.9712 23.9499L22.0044 23.9213L22.0373 23.8923L22.07 23.8631L22.1022 23.8336L22.1341 23.8039L22.1655 23.7739L22.1967 23.7436L22.2275 23.713L22.2579 23.6823L22.2879 23.6513L22.3175 23.6199L22.3467 23.5885L22.3757 23.5566L22.404 23.5248L22.4322 23.4925L22.4599 23.46L22.4872 23.4274L22.5143 23.3944L22.5407 23.3615L22.5669 23.3281L22.5927 23.2947L22.618 23.261L22.643 23.2271L22.6675 23.1931L22.6917 23.1588L22.7155 23.1243L22.7388 23.0898L22.7618 23.0549L22.7844 23.0201L22.8065 22.985L22.8282 22.9498L22.8496 22.9143L22.8705 22.8788L22.8911 22.8431L22.9111 22.8073L22.9308 22.7713L22.9501 22.7351L22.969 22.699L22.9874 22.6627L23.0055 22.6262L23.0231 22.5897L23.0404 22.5529L23.0572 22.5162L23.0735 22.4793L23.0895 22.4425L23.1051 22.4053L23.1202 22.3683L23.135 22.3309L23.1492 22.2938L23.1632 22.2562L23.1766 22.2191L23.1897 22.1815L23.2024 22.1438L23.2145 22.1063L23.2264 22.0687L23.2378 22.0311L23.2488 21.9931L23.2593 21.9556L23.2696 21.9175L23.2793 21.8801L23.2886 21.8421L23.2975 21.8041L23.306 21.7663L23.3141 21.7287L23.3218 21.6905L23.3291 21.6527L23.3359 21.6147L23.3423 21.577L23.3484 21.5392L23.3541 21.5013L23.3593 21.4634L23.3641 21.4255L23.3686 21.3879L23.3726 21.3503L23.3762 21.3124L23.3795 21.2748L23.3823 21.2372L23.3847 21.1996L23.3867 21.1621L23.3884 21.1247L23.3896 21.0875L23.3904 21.05L23.3909 21.0126L23.391 20.9756L23.3907 20.9385L23.39 20.9016L23.3889 20.8647L23.3874 20.8276L23.3855 20.7913L23.3833 20.7541L23.3807 20.7179L23.3777 20.6816L23.3744 20.645L23.3706 20.6088L23.3666 20.5729L23.3621 20.5366L23.3573 20.501L23.352 20.4652L23.3465 20.4298L23.3405 20.3942L23.3343 20.3588L23.3277 20.3237L23.3207 20.2887L23.3134 20.2537L23.3057 20.219L23.2977 20.1844L23.2893 20.15L23.2806 20.1159L23.2715 20.0815L23.2622 20.0479L23.2524 20.0138L23.2424 19.9804L23.232 19.947L23.2213 19.9138L23.2103 19.8807L23.1989 19.8477L23.1873 19.8153L23.1753 19.7829L23.1629 19.7504L23.1503 19.7185L23.1374 19.6863L23.1243 19.655L23.1107 19.6233L23.0969 19.5921L23.0828 19.5612L23.0684 19.5303L23.0537 19.4997L23.0387 19.4693L23.0235 19.4391L23.008 19.4092L22.9921 19.3795L22.9761 19.35L22.9597 19.3208L22.943 19.2917L22.9262 19.263L22.9091 19.2345L22.8916 19.2061L22.8739 19.1782L22.856 19.1504L22.8378 19.1228L22.8194 19.0954L22.8008 19.0685L22.7819 19.0416L22.7627 19.0151L22.7434 18.9889L22.7237 18.9629L22.704 18.9371L22.6839 18.9116L22.6637 18.8864L22.6432 18.8615L22.6225 18.8368L22.6016 18.8123L22.5806 18.7882L22.5593 18.7644L22.5377 18.7408L22.5161 18.7174L22.4942 18.6944L22.4721 18.6717L22.4498 18.6492L22.4274 18.6271L22.4048 18.6052L22.3821 18.5836L22.3589 18.5622L22.336 18.5412L22.3127 18.5204L22.2893 18.5L22.2656 18.4798L22.2419 18.4601L22.2179 18.4405L22.1939 18.4212L22.1698 18.4022L22.1454 18.3835L22.121 18.3651L22.0964 18.347L22.0716 18.3292L22.0469 18.3118L22.0219 18.2945L21.9969 18.2777L21.9717 18.2611L21.9463 18.2448L21.921 18.2288L21.8954 18.2131L21.8699 18.1977L21.8442 18.1827L21.8184 18.1679L21.7925 18.1534L21.7666 18.1392L21.7406 18.1253L21.7145 18.1118L21.6884 18.0985L21.662 18.0855L21.6358 18.0729L21.6094 18.0606L21.583 18.0485L21.5565 18.0368L21.5298 18.0253L21.5034 18.0142L21.4767 18.0035L21.4499 17.9929L21.4233 17.9827L21.3965 17.9728L21.3698 17.9632L21.343 17.9539L21.3161 17.9448L21.2894 17.9362L21.2625 17.9277L21.2356 17.9196L21.2088 17.9118L21.1817 17.9043L21.155 17.8971L21.1281 17.8902L21.1012 17.8836L21.0743 17.8773L21.0474 17.8712L21.0205 17.8655L20.9937 17.8601L20.9669 17.8549L20.9402 17.8501L20.9133 17.8455L20.8867 17.8413L20.8598 17.8373L20.8333 17.8336L20.8066 17.8301L20.78 17.827L20.7536 17.8242L20.727 17.8217L20.7006 17.8193L20.6742 17.8173L20.6479 17.8156L20.6216 17.8141L20.5954 17.813L20.5694 17.8122L20.5433 17.8115L20.5173 17.8111L20.4913 17.811L20.4655 17.8113L20.4397 17.8117L20.4141 17.8124L20.3885 17.8135L20.3631 17.8147L20.3375 17.8162L20.3123 17.8179L20.2871 17.8199L20.262 17.8223L20.2371 17.8248L20.2121 17.8275L20.1874 17.8306L20.1627 17.8338L20.1382 17.8374L20.1137 17.8412L20.0894 17.8451L20.0651 17.8494L20.0412 17.8539L20.0171 17.8586L19.9934 17.8635L19.9697 17.8687L19.9462 17.8742Z" fill="#9E96FD"/>
</svg>
