<svg width="39" height="24" viewBox="0 0 39 24" fill="none" xmlns="http://www.w3.org/2000/svg">
<path d="M24.8721 2.56506H14.3936V21.4338H24.8721V2.56506Z" fill="#FF5F00"/>
<path d="M15.0559 12C15.0543 10.1828 15.4652 8.38902 16.2577 6.7545C17.0501 5.11997 18.2033 3.68753 19.6298 2.5656C17.8632 1.17415 15.7415 0.308826 13.5073 0.0685352C11.2731 -0.171755 9.01654 0.222674 6.99547 1.20676C4.9744 2.19084 3.27041 3.72487 2.07826 5.6335C0.886112 7.54212 0.253906 9.74834 0.253906 12C0.253906 14.2516 0.886112 16.4578 2.07826 18.3665C3.27041 20.2751 4.9744 21.8091 6.99547 22.7932C9.01654 23.7773 11.2731 24.1717 13.5073 23.9314C15.7415 23.6911 17.8632 22.8258 19.6298 21.4344C18.2033 20.3124 17.0501 18.88 16.2577 17.2455C15.4652 15.6109 15.0543 13.8172 15.0559 12Z" fill="#EB001B"/>
<path d="M39.0003 12C39.0004 14.2516 38.3683 16.4578 37.1762 18.3664C35.9841 20.2751 34.2802 21.8091 32.2592 22.7932C30.2381 23.7773 27.9816 24.1717 25.7474 23.9314C23.5132 23.6911 21.3916 22.8258 19.625 21.4344C21.0503 20.3113 22.2026 18.8786 22.9949 17.2444C23.7872 15.6101 24.1989 13.8169 24.1989 12C24.1989 10.1831 23.7872 8.38988 22.9949 6.75561C22.2026 5.12134 21.0503 3.68867 19.625 2.56561C21.3916 1.17415 23.5132 0.30882 25.7474 0.0685323C27.9816 -0.171756 30.2381 0.222691 32.2592 1.20678C34.2802 2.19088 35.9841 3.72492 37.1762 5.63354C38.3683 7.54217 39.0004 9.74837 39.0003 12Z" fill="#F79E1B"/>
<path d="M37.8654 19.4362V19.0499H38.0209V18.9712H37.625V19.0499H37.7805V19.4362H37.8654ZM38.634 19.4362V18.9705H38.5127L38.3731 19.2908L38.2335 18.9705H38.1121V19.4362H38.1978V19.0849L38.3287 19.3878H38.4175L38.5484 19.0841V19.4362H38.634Z" fill="#F79E1B"/>
</svg>
