<svg width="10" height="10" viewBox="0 0 10 10" fill="none" xmlns="http://www.w3.org/2000/svg">
<path d="M9.24207 9.24256C9.50242 8.98221 9.50242 8.5601 9.24207 8.29975L5.94269 5.00037L9.24298 1.70009C9.50332 1.43974 9.50332 1.01763 9.24297 0.757276C8.98263 0.496926 8.56051 0.496926 8.30016 0.757275L4.99988 4.05756L1.69959 0.757274C1.43925 0.496924 1.01714 0.496924 0.756786 0.757274C0.496436 1.01762 0.496436 1.43973 0.756785 1.70008L4.05707 5.00037L0.757691 8.29975C0.497341 8.5601 0.497342 8.98221 0.757691 9.24256C1.01804 9.50291 1.44015 9.50291 1.7005 9.24256L4.99988 5.94318L8.29926 9.24256C8.55961 9.50291 8.98172 9.50291 9.24207 9.24256Z" fill="#9CA3AF"/>
</svg>
