<svg width="20" height="16" viewBox="0 0 20 16" fill="none" xmlns="http://www.w3.org/2000/svg">
<path d="M14.9497 12.95C13.5252 14.0358 11.7906 14.6374 9.99967 14.6667C4.16634 14.6667 0.833008 8 0.833008 8C1.86958 6.06825 3.30729 4.38051 5.04967 3.05M8.24967 1.53333C8.82328 1.39907 9.41056 1.33195 9.99967 1.33333C15.833 1.33333 19.1663 8 19.1663 8C18.6605 8.94634 18.0572 9.83728 17.3663 10.6583M11.7663 9.76667C11.5375 10.0123 11.2615 10.2093 10.9548 10.3459C10.6481 10.4826 10.3171 10.556 9.98142 10.562C9.64574 10.5679 9.31231 10.5061 9.00102 10.3804C8.68972 10.2547 8.40694 10.0675 8.16955 9.83013C7.93215 9.59273 7.745 9.30995 7.61927 8.99866C7.49353 8.68736 7.43178 8.35393 7.4377 8.01826C7.44363 7.68258 7.5171 7.35154 7.65374 7.04487C7.79038 6.73821 7.98739 6.46221 8.23301 6.23333" stroke="black" stroke-width="1.5" stroke-linecap="round" stroke-linejoin="round"/>
</svg>
