<svg width="20" height="20" viewBox="0 0 20 20" fill="none" xmlns="http://www.w3.org/2000/svg">
<path d="M9.0835 12.7507H10.9168V14.584H9.0835V12.7507ZM9.0835 5.41732H10.9168V10.9173H9.0835V5.41732ZM9.991 0.833984C4.931 0.833984 0.833496 4.94065 0.833496 10.0007C0.833496 15.0607 4.931 19.1673 9.991 19.1673C15.0602 19.1673 19.1668 15.0607 19.1668 10.0007C19.1668 4.94065 15.0602 0.833984 9.991 0.833984ZM10.0002 17.334C5.9485 17.334 2.66683 14.0523 2.66683 10.0007C2.66683 5.94898 5.9485 2.66732 10.0002 2.66732C14.0518 2.66732 17.3335 5.94898 17.3335 10.0007C17.3335 14.0523 14.0518 17.334 10.0002 17.334Z" fill="#FF000D"/>
</svg>
