<svg width="20" height="20" viewBox="0 0 20 20" fill="none" xmlns="http://www.w3.org/2000/svg">
<circle cx="10" cy="10" r="10" fill="#FAFAFF"/>
<path d="M14.2421 14.2426C14.5024 13.9822 14.5024 13.5601 14.2421 13.2997L10.9427 10.0004L14.243 6.70009C14.5033 6.43974 14.5033 6.01763 14.243 5.75728C13.9826 5.49693 13.5605 5.49693 13.3002 5.75728L9.99988 9.05756L6.69959 5.75727C6.43925 5.49692 6.01714 5.49692 5.75679 5.75727C5.49644 6.01762 5.49644 6.43973 5.75679 6.70008L9.05707 10.0004L5.75769 13.2997C5.49734 13.5601 5.49734 13.9822 5.75769 14.2426C6.01804 14.5029 6.44015 14.5029 6.7005 14.2426L9.99988 10.9432L13.2993 14.2426C13.5596 14.5029 13.9817 14.5029 14.2421 14.2426Z" fill="#9CA3AF"/>
</svg>
