<svg width="22" height="21" viewBox="0 0 22 21" fill="none" xmlns="http://www.w3.org/2000/svg">
<path d="M21.5 9.75V17.25C21.5 19.3176 19.8176 21 17.75 21H4.25C2.18244 21 0.5 19.3176 0.5 17.25V3.75C0.5 1.68244 2.18244 1.10641e-06 4.25 1.10641e-06H11.75C12.1642 1.10641e-06 12.5 0.335814 12.5 0.750001C12.5 1.16419 12.1642 1.5 11.75 1.5H4.25C3.00931 1.5 2 2.50931 2 3.75V17.25C2 18.4907 3.00931 19.5 4.25 19.5H17.75C18.9907 19.5 20 18.4907 20 17.25V9.75C20 9.33581 20.3358 9 20.75 9C21.1642 9 21.5 9.33581 21.5 9.75ZM5.96975 10.7198L16.4697 0.219751C16.7628 -0.0733114 17.2374 -0.0733114 17.5303 0.219751L21.2803 3.96975C21.5733 4.26281 21.5733 4.73738 21.2803 5.03025L10.7802 15.5303C10.6396 15.6709 10.4489 15.75 10.25 15.75H6.5C6.08581 15.75 5.75 15.4142 5.75 15V11.25C5.75 11.0511 5.82913 10.8604 5.96975 10.7198ZM15.8105 3L18.5 5.6895L19.6895 4.5L17 1.8105L15.8105 3ZM7.25 14.25H9.9395L17.4395 6.75L14.75 4.0605L7.25 11.5605V14.25Z" fill="#7266FC"/>
</svg>
